<svg width="22" height="20" viewBox="0 0 22 20" fill="none" xmlns="http://www.w3.org/2000/svg">
<path d="M17.84 0H4.16001C2.28224 0 0.76001 1.52223 0.76001 3.4V16.568C0.76001 18.4458 2.28224 19.968 4.16001 19.968H17.84C19.7178 19.968 21.24 18.4458 21.24 16.568V3.4C21.24 1.52223 19.7178 0 17.84 0Z" fill="#470137"/>
<path d="M11.5263 5.25121L8.97081 9.46905L11.7048 13.9479C11.7224 13.9792 11.7273 14.016 11.7186 14.0509C11.7143 14.0658 11.7052 14.0695 11.6912 14.07L11.6757 14.0698L11.6568 14.0693C11.6466 14.0693 11.6351 14.0698 11.6224 14.0719H9.65121L9.61249 14.0712C9.50625 14.0684 9.42969 14.0532 9.38305 13.9753C9.20066 13.62 9.01746 13.2651 8.83345 12.9106C8.66886 12.5944 8.49977 12.2806 8.32625 11.9692L8.24961 11.8321C8.04207 11.4632 7.83827 11.0923 7.63825 10.7193H7.62449C7.43978 11.0884 7.2497 11.4548 7.05433 11.8183C6.85726 12.1847 6.66262 12.5488 6.47041 12.9106C6.27806 13.2725 6.08113 13.6321 5.87969 13.9891C5.84729 14.0619 5.79345 14.0771 5.71849 14.0795L5.68729 14.08H3.80513L3.79697 14.0803L3.77009 14.0827C3.75513 14.0835 3.74617 14.0803 3.74329 14.0578C3.73817 14.0243 3.74551 13.9901 3.76393 13.9616L6.41545 9.60641L3.83257 5.23761C3.80516 5.20113 3.80057 5.17137 3.81881 5.14833C3.82895 5.1366 3.84168 5.12738 3.85599 5.12141C3.87031 5.11544 3.88582 5.11288 3.90129 5.11393H5.83841C5.88065 5.11165 5.92288 5.11869 5.96209 5.13457C5.99489 5.15321 6.02313 5.17905 6.04449 5.21017C6.20934 5.57657 6.39254 5.94292 6.59409 6.30921C6.79405 6.67314 6.99785 7.03495 7.20545 7.39457C7.40987 7.74863 7.60008 8.1107 7.77561 8.47993H7.78937C7.96926 8.11079 8.15475 7.7444 8.34577 7.38089C8.5334 7.02367 8.72572 6.66415 8.92273 6.30233C9.11719 5.94521 9.30726 5.58572 9.49289 5.22393C9.50345 5.19001 9.52233 5.15929 9.54785 5.13457C9.58178 5.11738 9.61991 5.11022 9.65777 5.11393H11.4575C11.4741 5.10981 11.4915 5.11117 11.5072 5.11781C11.5229 5.12445 11.5361 5.13601 11.5446 5.15075C11.5532 5.16549 11.5567 5.18262 11.5547 5.19955C11.5527 5.21649 11.5453 5.23232 11.5335 5.24465L11.5263 5.25121ZM15.5639 14.2491L15.4691 14.2501C14.8368 14.2598 14.2102 14.1284 13.635 13.8655C13.0991 13.6174 12.6512 13.2126 12.3504 12.7045C12.0471 12.2008 11.8915 11.5732 11.8836 10.8217L11.8833 10.7605C11.8781 10.1299 12.0393 9.50916 12.3505 8.96073C12.662 8.41792 13.116 7.97068 13.6635 7.66745L13.7106 7.64185C14.3058 7.31209 15.0248 7.14721 15.8675 7.14721L15.9043 7.14761L15.9464 7.14897L15.9936 7.15105L16.0461 7.15409L16.1343 7.16033L16.2341 7.16833L16.3071 7.17473V4.46817C16.3071 4.40412 16.3346 4.37207 16.3895 4.37201H18.1207C18.1318 4.37041 18.1433 4.37143 18.154 4.37501C18.1647 4.37858 18.1745 4.3846 18.1825 4.3926C18.1905 4.4006 18.1965 4.41035 18.2001 4.42108C18.2036 4.43181 18.2047 4.44322 18.2031 4.45441V12.574C18.2031 12.7104 18.2083 12.8572 18.2189 13.0143L18.2445 13.3707L18.2581 13.5769C18.2598 13.6054 18.2528 13.6338 18.2381 13.6584C18.2234 13.6829 18.2016 13.7024 18.1756 13.7143C17.729 13.9006 17.2639 14.0387 16.788 14.1264C16.384 14.201 15.9746 14.242 15.5639 14.2491ZM16.3071 12.5465V8.79585C16.2329 8.77574 16.1571 8.76195 16.0805 8.75465C15.9869 8.7452 15.8929 8.74061 15.7988 8.74089C15.4654 8.73753 15.1359 8.81285 14.8371 8.96073C14.5461 9.10551 14.2976 9.32326 14.1159 9.59273C13.9345 9.85801 13.8407 10.2044 13.8345 10.6319L13.8342 10.6781C13.8275 10.9776 13.8764 11.2757 13.9784 11.5573C14.0615 11.7843 14.1928 11.9905 14.3632 12.1619C14.5263 12.3195 14.7238 12.4371 14.9402 12.5053C15.1687 12.5793 15.4075 12.6164 15.6477 12.6153C15.7759 12.6153 15.8949 12.6107 16.0049 12.6015C16.0926 12.5948 16.1796 12.5804 16.2647 12.5583L16.3071 12.5465Z" fill="#FF61F6"/>
</svg>
