<svg width="60" height="60" viewBox="0 0 60 60" fill="none" xmlns="http://www.w3.org/2000/svg">
<rect width="60" height="60" rx="30" fill="#223975"/>
<path d="M40 27.66C40 22.87 40 20.4763 38.535 18.9875C37.07 17.4988 34.7137 17.5 30 17.5H27.5C22.7863 17.5 20.4287 17.5 18.965 18.9875C17.5012 20.475 17.5 22.87 17.5 27.66C17.5 32.45 17.5 34.8438 18.965 36.3325C19.5525 36.9287 20.2825 37.2862 21.25 37.5" stroke="#DEE5EF" stroke-width="2" stroke-linecap="round" stroke-linejoin="round"/>
<path d="M42.5 36.875C42.5 34.5312 42.5 33.36 41.9038 32.5375C41.711 32.2722 41.4778 32.039 41.2125 31.8463C40.39 31.25 39.2188 31.25 36.875 31.25H30.625C28.2812 31.25 27.11 31.25 26.2875 31.8463C26.0222 32.039 25.789 32.2722 25.5963 32.5375C25 33.3612 25 34.5325 25 36.875C25 39.2175 25 40.39 25.5963 41.2125C25.7894 41.4778 26.0231 41.7111 26.2888 41.9038C27.11 42.5 28.2812 42.5 30.625 42.5H36.875C39.2188 42.5 40.39 42.5 41.2125 41.9038C41.4778 41.711 41.711 41.4778 41.9038 41.2125C42.5 40.39 42.5 39.2188 42.5 36.875Z" stroke="#DEE5EF" stroke-width="2" stroke-linecap="round" stroke-linejoin="round"/>
<path d="M35.625 35L36.775 35.9912C37.2587 36.4075 37.5 36.6162 37.5 36.875C37.5 37.1337 37.2587 37.3425 36.775 37.7587L35.625 38.75M31.875 35L30.725 35.9912C30.2412 36.4075 30 36.6162 30 36.875C30 37.1337 30.2412 37.3425 30.725 37.7587L31.875 38.75M18.125 22.5H39.375" stroke="#DEE5EF" stroke-width="2" stroke-linecap="round" stroke-linejoin="round"/>
</svg>
