<svg width="21" height="21" viewBox="0 0 21 21" fill="none" xmlns="http://www.w3.org/2000/svg">
<path d="M7.86938 20.1562C9.72876 20.1562 11.2288 18.6562 11.2288 16.7969V13.4375H7.86938C6.01001 13.4375 4.51001 14.9375 4.51001 16.7969C4.51001 18.6562 6.01001 20.1562 7.86938 20.1562Z" fill="#0ACF83"/>
<path d="M4.51001 10.0781C4.51001 8.21875 6.01001 6.71875 7.86938 6.71875H11.2288V13.4375H7.86938C6.01001 13.4375 4.51001 11.9375 4.51001 10.0781Z" fill="#A259FF"/>
<path d="M4.51001 3.35938C4.51001 1.5 6.01001 0 7.86938 0H11.2288V6.71875H7.86938C6.01001 6.71875 4.51001 5.21875 4.51001 3.35938Z" fill="#F24E1E"/>
<path d="M11.2288 0H14.5881C16.4475 0 17.9475 1.5 17.9475 3.35938C17.9475 5.21875 16.4475 6.71875 14.5881 6.71875H11.2288V0Z" fill="#FF7262"/>
<path d="M17.9475 10.0781C17.9475 11.9375 16.4475 13.4375 14.5881 13.4375C12.7288 13.4375 11.2288 11.9375 11.2288 10.0781C11.2288 8.21875 12.7288 6.71875 14.5881 6.71875C16.4475 6.71875 17.9475 8.21875 17.9475 10.0781Z" fill="#1ABCFE"/>
</svg>
