<svg width="21" height="20" viewBox="0 0 21 20" fill="none" xmlns="http://www.w3.org/2000/svg">
<path d="M0.76001 0H20.76V20H0.76001V0Z" fill="#FF0066"/>
<path d="M7.56574 6.43596C8.19832 6.42674 8.70457 5.90807 8.69848 5.27541C8.6923 4.64268 8.17613 4.13393 7.5434 4.13698C6.91066 4.14002 6.39941 4.6537 6.39934 5.28643C6.39985 5.43867 6.4305 5.5893 6.48951 5.72964C6.54851 5.86998 6.63472 5.99726 6.74315 6.10412C6.85157 6.21099 6.98008 6.29534 7.12127 6.35231C7.26245 6.40927 7.41351 6.43765 7.56574 6.43596ZM5.1473 12.5904C5.0811 12.8735 5.04652 13.163 5.04418 13.4537C5.04418 14.4656 5.59293 15.1376 6.75934 15.1376C7.72652 15.1376 8.51129 14.5632 9.07535 13.6353L8.73051 15.0192H10.6505L11.7489 10.6192C12.0233 9.50401 12.5545 8.92565 13.3609 8.92565C13.9953 8.92565 14.3897 9.32002 14.3897 9.97205C14.3929 10.181 14.3639 10.3893 14.3041 10.5896L13.7385 12.6128C13.6576 12.8915 13.6172 13.1803 13.6186 13.4704C13.6186 14.4304 14.1842 15.1345 15.3673 15.1345C16.3793 15.1345 17.1857 14.4832 17.6314 12.9224L16.8769 12.6304C16.4993 13.6768 16.1738 13.8656 15.9169 13.8656C15.6601 13.8656 15.5217 13.6945 15.5217 13.3512C15.5291 13.1711 15.5578 12.9925 15.6073 12.8192L16.1569 10.8473C16.2803 10.4419 16.3439 10.0206 16.3457 9.59682C16.3457 8.12159 15.4537 7.35206 14.3729 7.35206C13.3609 7.35206 12.3321 8.26479 11.8177 9.22565L12.1945 7.5008H9.26246L8.85051 9.0208H10.2233L9.37855 12.4C8.71449 13.8753 7.49535 13.8992 7.34254 13.8649C7.09129 13.808 6.93129 13.7128 6.93129 13.3848C6.93863 13.1192 6.97895 12.8556 7.05129 12.6L8.33769 7.49682H5.08012L4.66895 9.01682H6.02332L5.1473 12.5904Z" fill="white"/>
</svg>
