<svg width="15" height="20" viewBox="0 0 15 20" fill="none" xmlns="http://www.w3.org/2000/svg">
<g clip-path="url(#clip0_131_172)">
<path d="M7.08631 19.9495L1.31446 18.3471L0.0281982 3.92053H14.1617L12.8741 18.3449L7.08631 19.9495Z" fill="#264DE4"/>
<path d="M11.7718 17.4264L12.8721 5.1001H7.09497V18.723L11.7718 17.4264Z" fill="#2965F1"/>
<path d="M2.977 10.4507L3.13556 12.2201H7.09506V10.4507H2.977ZM2.65833 6.86951L2.81916 8.63887H7.09506V6.86951H2.65833ZM7.09506 15.046L7.0873 15.048L5.11677 14.5159L4.99079 13.1048H3.21461L3.46248 15.883L7.08691 16.8891L7.09506 16.8868V15.046Z" fill="#EBEBEB"/>
<path d="M3.35449 0H5.49743V0.896177H4.25067V1.79235H5.49754V2.68848H3.35449V0ZM5.92607 0H8.06906V0.77928H6.82225V0.935125H8.06906V2.72748H5.92613V1.90914H7.17294V1.7533H5.92602L5.92607 0ZM8.49771 0H10.6407V0.77928H9.39388V0.935125H10.6407V2.72748H8.49771V1.90914H9.74452V1.7533H8.49776L8.49771 0Z" fill="black"/>
<path d="M11.2018 10.4507L11.5212 6.86951H7.08892V8.63887H9.58211L9.42111 10.4507H7.08892V12.2201H9.2677L9.06227 14.5148L7.08887 15.0475V16.8882L10.7162 15.883L10.7428 15.584L11.1586 10.9259L11.2018 10.4507Z" fill="white"/>
</g>
<defs>
<clipPath id="clip0_131_172">
<rect width="14.19" height="20" fill="white"/>
</clipPath>
</defs>
</svg>
