<svg width="60" height="60" viewBox="0 0 60 60" fill="none" xmlns="http://www.w3.org/2000/svg">
<rect width="60" height="60" rx="30" fill="#223975"/>
<path d="M19 32.7775V20C19 19.337 19.2634 18.7011 19.7323 18.2322C20.2011 17.7634 20.837 17.5 21.5 17.5H38.5C39.1631 17.5 39.799 17.7634 40.2678 18.2322C40.7367 18.7011 41 19.337 41 20V32.7775M19 32.7775H41M19 32.7775L17.15 39.32C17.045 39.6917 17.0275 40.0827 17.0989 40.4624C17.1704 40.842 17.3288 41.1999 17.5618 41.508C17.7948 41.8161 18.0961 42.066 18.4419 42.2381C18.7877 42.4103 19.1688 42.4999 19.555 42.5H40.445C40.8313 42.4999 41.2123 42.4103 41.5582 42.2381C41.904 42.066 42.2053 41.8161 42.4383 41.508C42.6713 41.1999 42.8297 40.842 42.9012 40.4624C42.9726 40.0827 42.9551 39.6917 42.85 39.32L41 32.7775" stroke="#DEE5EF" stroke-width="2"/>
<path d="M28.75 38.75H31.25M32.5 22.5L35 25L32.5 27.5M27.5 22.5L25 25L27.5 27.5" stroke="#DEE5EF" stroke-width="2" stroke-linecap="round" stroke-linejoin="round"/>
</svg>
