<svg width="21" height="20" viewBox="0 0 21 20" fill="none" xmlns="http://www.w3.org/2000/svg">
<path d="M20.0751 9.12158L11.4632 0.510015C10.9676 0.0140772 10.1632 0.0140772 9.66684 0.510015L7.87871 2.29845L10.1472 4.56689C10.6745 4.38892 11.2789 4.5083 11.699 4.92845C12.1214 5.35126 12.2398 5.9608 12.0575 6.48986L14.2437 8.67626C14.7726 8.49392 15.3831 8.61173 15.8053 9.03486C16.3959 9.62502 16.3959 10.5817 15.8053 11.1722C15.6649 11.3126 15.4983 11.424 15.3149 11.5C15.1314 11.576 14.9348 11.6151 14.7363 11.6151C14.5377 11.6151 14.3412 11.576 14.1577 11.5C13.9743 11.424 13.8077 11.3126 13.6673 11.1722C13.4565 10.9612 13.3128 10.6925 13.2542 10.4C13.1957 10.1075 13.225 9.8042 13.3384 9.5283L11.2997 7.48955L11.2993 12.8553C11.4473 12.9282 11.5823 13.0246 11.6992 13.141C12.2895 13.7311 12.2895 14.6875 11.6992 15.2789C11.1087 15.8691 10.1517 15.8691 9.56184 15.2789C8.97153 14.6877 8.97153 13.7313 9.56184 13.141C9.7034 12.9995 9.87158 12.8874 10.0567 12.8113V7.3958C9.87137 7.31998 9.70312 7.20782 9.56184 7.06595C9.11465 6.61908 9.00699 5.96283 9.23637 5.41345L6.99996 3.17705L1.09496 9.08173C0.856731 9.32004 0.7229 9.64321 0.7229 9.98017C0.7229 10.3171 0.856731 10.6403 1.09496 10.8786L9.707 19.4902C10.2029 19.9861 11.007 19.9861 11.5037 19.4902L20.0753 10.9186C20.3135 10.6802 20.4472 10.357 20.4472 10.0201C20.4472 9.68308 20.3133 9.35991 20.0751 9.12158Z" fill="#F34F29"/>
</svg>
