<svg width="21" height="20" viewBox="0 0 21 20" fill="none" xmlns="http://www.w3.org/2000/svg">
<path d="M10.5849 1.66669C9.49057 1.66669 8.40694 1.88224 7.39589 2.30102C6.38484 2.71981 5.46619 3.33364 4.69236 4.10746C3.12956 5.67027 2.25159 7.78988 2.25159 10C2.25159 13.6834 4.64325 16.8084 7.95159 17.9167C8.36825 17.9834 8.50159 17.725 8.50159 17.5V16.0917C6.19325 16.5917 5.70159 14.975 5.70159 14.975C5.31825 14.0084 4.77659 13.75 4.77659 13.75C4.01825 13.2334 4.83492 13.25 4.83492 13.25C5.66825 13.3084 6.10992 14.1084 6.10992 14.1084C6.83492 15.375 8.05992 15 8.53492 14.8C8.60992 14.2584 8.82659 13.8917 9.05992 13.6834C7.20992 13.475 5.26825 12.7584 5.26825 9.58335C5.26825 8.65835 5.58492 7.91669 6.12659 7.32502C6.04325 7.11669 5.75159 6.25002 6.20992 5.12502C6.20992 5.12502 6.90992 4.90002 8.50159 5.97502C9.15992 5.79169 9.87659 5.70002 10.5849 5.70002C11.2933 5.70002 12.0099 5.79169 12.6683 5.97502C14.2599 4.90002 14.9599 5.12502 14.9599 5.12502C15.4183 6.25002 15.1266 7.11669 15.0433 7.32502C15.5849 7.91669 15.9016 8.65835 15.9016 9.58335C15.9016 12.7667 13.9516 13.4667 12.0933 13.675C12.3933 13.9334 12.6683 14.4417 12.6683 15.2167V17.5C12.6683 17.725 12.8016 17.9917 13.2266 17.9167C16.5349 16.8 18.9183 13.6834 18.9183 10C18.9183 8.90567 18.7027 7.82204 18.2839 6.81099C17.8651 5.79994 17.2513 4.88129 16.4775 4.10746C15.7037 3.33364 14.785 2.71981 13.7739 2.30102C12.7629 1.88224 11.6793 1.66669 10.5849 1.66669Z" fill="black"/>
</svg>
