<svg width="15" height="20" viewBox="0 0 15 20" fill="none" xmlns="http://www.w3.org/2000/svg">
<g clip-path="url(#clip0_131_166)">
<path d="M14.9718 3.92053L13.6842 18.3449L7.89637 19.9495L2.12452 18.3471L0.838257 3.92053H14.9718Z" fill="#E44D26"/>
<path d="M7.90503 18.723L12.5819 17.4264L13.6821 5.1001H7.90503V18.723Z" fill="#F16529"/>
<path d="M5.40207 8.63887H7.90512V6.86951H3.46838L3.51071 7.34419L3.94561 12.2201H7.90512V10.4507H5.56379L5.40207 8.63887ZM5.80085 13.1048H4.02467L4.27254 15.883L7.89697 16.8891L7.90512 16.8868V15.046L7.89736 15.048L5.92683 14.5159L5.80085 13.1048Z" fill="#EBEBEB"/>
<path d="M2.1532 0H3.05237V0.888366H3.87492V0H4.77414V2.69019H3.87497V1.78936H3.05242V2.69019H2.15325L2.1532 0ZM5.95652 0.892133H5.16505V0H7.64782V0.892133H6.85586V2.69019H5.95669V0.892133H5.95652ZM8.04184 0H8.9794L9.55613 0.945263L10.1323 0H11.0703V2.69019H10.1747V1.35679L9.55613 2.3133H9.54062L8.92162 1.35679V2.69019H8.04184V0ZM11.5177 0H12.4172V1.801H13.6817V2.69019H11.5177L11.5177 0Z" fill="black"/>
<path d="M7.89898 12.2201H10.0778L9.87233 14.5148L7.89893 15.0475V16.8882L11.5262 15.883L11.5528 15.584L11.9687 10.9259L12.0118 10.4507H7.89898V12.2201ZM7.89898 8.63455V8.63887H12.1728L12.2083 8.2412L12.289 7.34419L12.3312 6.86951H7.89898V8.63455Z" fill="white"/>
</g>
<defs>
<clipPath id="clip0_131_166">
<rect width="14.19" height="20" fill="white" transform="translate(0.810059)"/>
</clipPath>
</defs>
</svg>
