<svg width="21" height="20" viewBox="0 0 21 20" fill="none" xmlns="http://www.w3.org/2000/svg">
<path d="M10.1899 8.875C10.9925 8.875 11.6431 8.22441 11.6431 7.42187C11.6431 6.61934 10.9925 5.96875 10.1899 5.96875C9.3874 5.96875 8.73682 6.61934 8.73682 7.42187C8.73682 8.22441 9.3874 8.875 10.1899 8.875Z" fill="#61DAFB"/>
<path d="M10.1899 12.7656C11.3306 13.875 12.4556 14.5312 13.3618 14.5312C13.6587 14.5312 13.9399 14.4688 14.1743 14.3281C14.9868 13.8594 15.2837 12.6875 15.0024 11.0156C14.9556 10.7188 14.8931 10.4219 14.8149 10.1094C15.1274 10.0156 15.4087 9.92188 15.6899 9.82812C17.2681 9.21875 18.1431 8.375 18.1431 7.45313C18.1431 6.51563 17.2681 5.67188 15.6899 5.07812C15.4087 4.96875 15.1274 4.875 14.8149 4.79688C14.8931 4.48438 14.9556 4.1875 15.0024 3.89062C15.2681 2.1875 14.9712 1 14.1587 0.53125C13.9243 0.390625 13.6431 0.328125 13.3462 0.328125C12.4556 0.328125 11.3149 0.984375 10.1743 2.09375C9.04932 0.984375 7.92432 0.328125 7.01807 0.328125C6.72119 0.328125 6.43994 0.390625 6.20557 0.53125C5.39307 1 5.09619 2.17188 5.37744 3.84375C5.42432 4.14062 5.48682 4.4375 5.56494 4.75C5.25244 4.84375 4.97119 4.9375 4.68994 5.03125C3.11182 5.64062 2.23682 6.48438 2.23682 7.40625C2.23682 8.34375 3.11182 9.1875 4.68994 9.78125C4.97119 9.89062 5.25244 9.98438 5.56494 10.0625C5.48682 10.375 5.42432 10.6719 5.37744 10.9688C5.11182 12.6406 5.40869 13.8281 6.20557 14.2812C6.43994 14.4219 6.72119 14.4844 7.01807 14.4844C7.92432 14.5156 9.04932 13.8594 10.1899 12.7656ZM9.31494 10.6562C9.59619 10.6719 9.89307 10.6719 10.1899 10.6719C10.4868 10.6719 10.7837 10.6719 11.0649 10.6562C10.7837 11.0312 10.4868 11.375 10.1899 11.7031C9.89307 11.375 9.59619 11.0312 9.31494 10.6562ZM7.37744 9.04688C7.53369 9.3125 7.67432 9.5625 7.84619 9.8125C7.36182 9.75 6.90869 9.67188 6.47119 9.57812C6.61182 9.15625 6.76807 8.71875 6.95557 8.28125C7.08057 8.53125 7.22119 8.79688 7.37744 9.04688ZM6.47119 5.28125C6.90869 5.1875 7.36182 5.10938 7.84619 5.04688C7.68994 5.29688 7.53369 5.54688 7.37744 5.8125C7.22119 6.07813 7.08057 6.32813 6.95557 6.59375C6.75244 6.14063 6.59619 5.70312 6.47119 5.28125ZM7.33057 7.42188C7.53369 7 7.75244 6.57813 8.00244 6.15625C8.23682 5.75 8.50244 5.34375 8.76807 4.9375C9.23682 4.90625 9.70557 4.89062 10.1899 4.89062C10.6899 4.89062 11.1587 4.90625 11.6118 4.9375C11.8931 5.34375 12.1431 5.75 12.3774 6.15625C12.6274 6.57813 12.8462 7 13.0493 7.42188C12.8462 7.84375 12.6274 8.26562 12.3774 8.6875C12.1431 9.09375 11.8774 9.5 11.6118 9.90625C11.1431 9.9375 10.6743 9.95312 10.1899 9.95312C9.68994 9.95312 9.22119 9.9375 8.76807 9.90625C8.48682 9.5 8.23682 9.09375 8.00244 8.6875C7.75244 8.26562 7.53369 7.84375 7.33057 7.42188ZM13.4399 6.57812L13.0181 5.79688C12.8618 5.53125 12.7212 5.28125 12.5493 5.03125C13.0337 5.09375 13.4868 5.17188 13.9243 5.26562C13.7837 5.70312 13.6274 6.14062 13.4399 6.57812ZM13.4399 8.26563C13.6274 8.70312 13.7837 9.14062 13.9243 9.5625C13.4868 9.65625 13.0337 9.73438 12.5493 9.79688C12.7056 9.54688 12.8618 9.29688 13.0181 9.03125C13.1587 8.79688 13.2993 8.53125 13.4399 8.26563ZM13.7993 13.6875C13.6743 13.7656 13.5181 13.7969 13.3462 13.7969C12.5806 13.7969 11.6274 13.1719 10.6899 12.2344C11.1431 11.75 11.5806 11.2031 12.0181 10.5938C12.7524 10.5313 13.4556 10.4219 14.1118 10.2656C14.1899 10.5469 14.2368 10.8281 14.2837 11.1094C14.5024 12.4375 14.3306 13.3906 13.7993 13.6875ZM14.6118 5.45313C16.3618 5.95313 17.4087 6.71875 17.4087 7.42188C17.4087 8.03125 16.6899 8.64063 15.4243 9.125C15.1743 9.21875 14.8931 9.3125 14.6118 9.39062C14.4087 8.75 14.1587 8.09375 13.8462 7.42188C14.1587 6.75 14.4243 6.09375 14.6118 5.45313ZM13.3618 1.04688C13.5337 1.04688 13.6743 1.07812 13.8149 1.15625C14.3306 1.45312 14.5181 2.39062 14.2993 3.73438C14.2524 4 14.1899 4.28125 14.1274 4.57812C13.4712 4.4375 12.7681 4.32812 12.0337 4.25C11.6118 3.64062 11.1587 3.09375 10.7056 2.60938C11.6431 1.6875 12.5962 1.04688 13.3618 1.04688ZM11.0649 4.1875C10.7837 4.17187 10.4868 4.17188 10.1899 4.17188C9.89307 4.17188 9.59619 4.17187 9.31494 4.1875C9.59619 3.8125 9.89307 3.46875 10.1899 3.14062C10.4868 3.46875 10.7837 3.82812 11.0649 4.1875ZM6.58057 1.15625C6.70557 1.07812 6.86182 1.04688 7.03369 1.04688C7.79932 1.04688 8.75244 1.67188 9.68994 2.60938C9.23682 3.09375 8.79932 3.64062 8.36182 4.25C7.62744 4.3125 6.92432 4.42188 6.26807 4.57812C6.18994 4.29687 6.14307 4.01562 6.09619 3.73438C5.87744 2.40625 6.04932 1.46875 6.58057 1.15625ZM5.76807 9.39062C4.01807 8.89062 2.97119 8.125 2.97119 7.42188C2.97119 6.8125 3.68994 6.20312 4.95557 5.71875C5.20557 5.625 5.48682 5.53125 5.76807 5.45313C5.97119 6.09375 6.22119 6.75 6.53369 7.42188C6.22119 8.09375 5.95557 8.76562 5.76807 9.39062ZM6.09619 11.1094C6.14307 10.8438 6.20557 10.5625 6.26807 10.2656C6.92432 10.4062 7.62744 10.5156 8.36182 10.5938C8.78369 11.2031 9.23682 11.75 9.68994 12.2344C8.75244 13.1563 7.79932 13.7969 7.03369 13.7969C6.86182 13.7969 6.72119 13.7656 6.58057 13.6875C6.04932 13.3906 5.87744 12.4375 6.09619 11.1094ZM5.43994 17.5469C5.78369 17.125 5.79932 16.6562 5.61182 16.1875C5.42432 15.7188 5.03369 15.5 4.54932 15.4844C3.97119 15.4688 3.37744 15.4844 2.79932 15.4844H2.68994V19.5312H3.15869V18H3.89307C3.98682 18 4.06494 18.0312 4.11182 18.1094L5.04932 19.5625C5.06494 19.5938 5.11182 19.6406 5.14307 19.6406H5.75244C5.37744 19.0625 5.01807 18.5156 4.64307 17.9531C4.97119 17.9062 5.25244 17.7969 5.43994 17.5469ZM3.15869 17.5156V15.9688H3.33057C3.68994 15.9688 4.06494 15.9531 4.42432 15.9844C4.84619 16 5.14307 16.3281 5.14307 16.75C5.14307 17.1719 4.79932 17.5 4.37744 17.5156C4.00244 17.5312 3.62744 17.5156 3.15869 17.5156ZM9.20557 17.7188C8.95557 16.625 7.95557 16.3438 7.18994 16.6875C6.59619 16.9531 6.33057 17.4688 6.31494 18.1094C6.29932 18.5938 6.43994 19.0312 6.81494 19.3594C7.23682 19.7344 7.75244 19.7812 8.28369 19.6875C8.58057 19.625 8.84619 19.4844 9.04932 19.2656C8.97119 19.1562 8.89307 19.0469 8.81494 18.9531C8.37744 19.3281 7.89307 19.4531 7.36182 19.2031C7.01807 19.0312 6.84619 18.6094 6.81494 18.2969H9.23682V18.0938C9.25244 17.9531 9.23682 17.8281 9.20557 17.7188ZM6.84619 17.9688C6.79932 17.5 7.26807 17 7.78369 17C8.37744 16.9844 8.75244 17.3438 8.76807 17.9688H6.84619ZM11.6431 16.6094C11.4087 16.5625 11.1587 16.5469 10.9243 16.5625C10.5493 16.5938 10.2212 16.7656 9.95557 17.0469C10.0337 17.1562 10.0962 17.2656 10.1899 17.3906C10.2212 17.3594 10.2524 17.3281 10.2837 17.3125C10.5337 17.0781 10.8306 16.9531 11.1899 16.9844C11.4712 17 11.7368 17.0938 11.8149 17.375C11.8774 17.5938 11.8618 17.8281 11.8774 18.0625C11.8306 18.0625 11.8149 18.0469 11.7993 18.0312C11.4243 17.7188 11.0024 17.6562 10.5493 17.7656C10.1274 17.875 9.86182 18.2031 9.83057 18.625C9.79932 19.1094 10.0181 19.4688 10.4399 19.6406C10.7056 19.75 11.0024 19.75 11.2837 19.6875C11.5024 19.6406 11.5962 19.5156 11.9087 19.3438V19.5469H12.3462C12.3462 18.9219 12.3618 18.1562 12.3462 17.4375C12.3462 16.9844 12.0806 16.7031 11.6431 16.6094ZM11.8618 18.5781C11.8462 18.625 11.8618 18.6719 11.8618 18.7188C11.8618 19.0469 11.7837 19.1562 11.4712 19.2812C11.2524 19.3594 11.0181 19.3906 10.7837 19.3125C10.5181 19.2344 10.3306 19 10.3306 18.7344C10.3149 18.4688 10.4868 18.2031 10.7524 18.125C11.1118 18 11.4399 18.0781 11.7368 18.2969C11.8306 18.375 11.8931 18.4531 11.8618 18.5781ZM14.2993 17.0312C14.7056 16.9062 15.0806 16.9844 15.3618 17.3281L15.4087 17.3594C15.5181 17.2656 15.6118 17.1719 15.7368 17.0625C15.6899 17.0156 15.6743 16.9844 15.6431 16.9375C15.1899 16.4531 14.2993 16.3906 13.7524 16.7812C12.9868 17.3438 13.0024 18.4375 13.3774 19.0156C13.7368 19.5625 14.2524 19.75 14.8618 19.6719C15.2212 19.625 15.5181 19.4531 15.7524 19.1562C15.6431 19.0625 15.5337 18.9688 15.4243 18.8594C15.3931 18.8906 15.3774 18.9062 15.3618 18.9375C14.9399 19.4062 14.2368 19.3594 13.8618 18.8594C13.6431 18.5625 13.5962 18.2188 13.6587 17.875C13.6899 17.4844 13.8931 17.1719 14.2993 17.0312ZM17.5493 19.1562C17.5181 19.1719 17.5024 19.1875 17.5024 19.1875C17.3774 19.2812 17.2524 19.2969 17.1118 19.25C16.9712 19.1875 16.9556 19.0625 16.9399 18.9375V17.1562C16.9399 17.125 16.9399 17.1875 16.9556 17.0312H17.5493V16.5625H16.9243V15.7812H16.4556V16.625H16.0493C16.0181 16.625 15.9712 16.6562 15.9712 16.6875C15.9556 16.7969 15.9712 16.875 15.9712 17.0312H16.4712V19.0312C16.4712 19.2812 16.5337 19.5 16.7524 19.625C16.9868 19.7656 17.4399 19.7344 17.6431 19.5625C17.6743 19.5469 17.6899 19.4844 17.6899 19.4688C17.6431 19.375 17.5962 19.2656 17.5493 19.1562Z" fill="#61DAFB"/>
</svg>
