<svg width="21" height="20" viewBox="0 0 21 20" fill="none" xmlns="http://www.w3.org/2000/svg">
<g clip-path="url(#clip0_131_199)">
<path d="M10.5856 4.00031C7.91885 4.00031 6.25276 5.33312 5.58557 7.99984C6.58526 6.66687 7.75229 6.16702 9.08526 6.50031C9.84635 6.68999 10.3903 7.24187 10.9926 7.85343C11.9729 8.84827 13.1076 9.99999 15.5856 9.99999C18.2521 9.99999 19.9184 8.66702 20.5856 5.99968C19.5856 7.33333 18.419 7.83343 17.0857 7.49999C16.3248 7.31015 15.7815 6.75843 15.1784 6.14687C14.1987 5.15202 13.0643 4.00031 10.5856 4.00031ZM5.58557 9.99999C2.91901 9.99999 1.25276 11.333 0.585571 14.0003C1.58547 12.6667 2.75203 12.1666 4.08526 12.5C4.84635 12.6898 5.39026 13.2416 5.9926 13.8531C6.97292 14.848 8.1076 15.9997 10.5856 15.9997C13.2521 15.9997 14.9184 14.6669 15.5856 12.0001C14.5856 13.3332 13.419 13.833 12.0857 13.4997C11.3248 13.31 10.7815 12.7581 10.1784 12.1466C9.1987 11.1517 8.06432 9.99999 5.58557 9.99999Z" fill="#38BDF8"/>
</g>
<defs>
<clipPath id="clip0_131_199">
<rect width="20" height="20" fill="white" transform="translate(0.584961)"/>
</clipPath>
</defs>
</svg>
