<svg width="60" height="60" viewBox="0 0 60 60" fill="none" xmlns="http://www.w3.org/2000/svg">
<rect width="60" height="60" rx="30" fill="#223975"/>
<g clip-path="url(#clip0_131_416)">
<path d="M24.75 37.25L26.5 35.25L21.25 29.75L26.5 24.25L24.75 22.25L17.25 29.75L24.75 37.25ZM34.75 37.25L42.25 29.75L34.75 22.25L32.75 24.25L38.25 29.75L32.75 35.25L34.75 37.25ZM15.1667 48.5C14.0208 48.5 13.0403 48.0924 12.225 47.2771C11.4097 46.4618 11.0014 45.4806 11 44.3333V15.1667C11 14.0208 11.4083 13.0403 12.225 12.225C13.0417 11.4097 14.0222 11.0014 15.1667 11H44.3333C45.4792 11 46.4604 11.4083 47.2771 12.225C48.0937 13.0417 48.5014 14.0222 48.5 15.1667V44.3333C48.5 45.4792 48.0924 46.4604 47.2771 47.2771C46.4618 48.0937 45.4806 48.5014 44.3333 48.5H15.1667ZM13.75 45.75H29.775H45.75V28.75V13.75H28.75H13.75V29.75V45.75Z" fill="#DEE5EF"/>
</g>
<defs>
<clipPath id="clip0_131_416">
<rect width="30" height="30" fill="white" transform="translate(15 15)"/>
</clipPath>
</defs>
</svg>
