<svg width="21" height="20" viewBox="0 0 21 20" fill="none" xmlns="http://www.w3.org/2000/svg">
<path d="M15.6226 0H4.99756C2.40872 0 0.310059 2.09867 0.310059 4.6875V15.3125C0.310059 17.9013 2.40872 20 4.99756 20H15.6226C18.2114 20 20.3101 17.9013 20.3101 15.3125V4.6875C20.3101 2.09867 18.2114 0 15.6226 0Z" fill="#F4F2ED"/>
<path d="M18.1226 14.2919C17.8951 14.3781 17.644 14.3779 17.4167 14.2914C17.1894 14.205 17.0016 14.0383 16.8889 13.8228C16.1808 12.7629 15.399 11.7508 14.6475 10.7169L14.3216 10.2825C13.4268 11.4815 12.5319 12.6325 11.7153 13.8272C11.6089 14.0331 11.4313 14.1934 11.2155 14.2781C10.9998 14.3628 10.7606 14.3662 10.5425 14.2876L13.9003 9.78302L10.777 5.71271C11.0018 5.63152 11.2478 5.6304 11.4733 5.70954C11.6989 5.78867 11.8902 5.94322 12.0151 6.14708C12.7404 7.20708 13.5441 8.21919 14.3433 9.29216C15.147 8.22786 15.9419 7.21138 16.6847 6.16013C16.7917 5.95751 16.9694 5.80129 17.1841 5.7212C17.3987 5.6411 17.6353 5.64272 17.8489 5.72575L16.6369 7.33302C16.094 8.04974 15.5597 8.77083 14.995 9.47021C14.9494 9.51093 14.913 9.56081 14.8881 9.61658C14.8631 9.67235 14.8503 9.73275 14.8503 9.79384C14.8503 9.85493 14.8631 9.91533 14.8881 9.9711C14.913 10.0269 14.9494 10.0767 14.995 10.1175C16.0332 11.4945 17.0626 12.8758 18.1226 14.2919ZM2.49756 9.72653C2.58881 9.29216 2.64521 8.81864 2.77123 8.3756C3.52271 5.70411 6.58514 4.592 8.69193 6.24708C9.92561 7.21583 10.234 8.58849 10.1733 10.1349H3.22303C3.11006 12.8976 5.10389 14.5657 7.65373 13.7143C8.06735 13.5663 8.43762 13.3177 8.73111 12.9908C9.0246 12.6639 9.23208 12.2691 9.33482 11.842C9.46951 11.4076 9.6867 11.3338 10.0994 11.4597C10.0314 11.9886 9.84444 12.4951 9.55252 12.9413C9.2606 13.3875 8.87133 13.7616 8.41397 14.0357C7.65831 14.4489 6.79133 14.6127 5.93701 14.5034C5.08268 14.3942 4.28478 14.0176 3.6574 13.4275C3.03672 12.7297 2.66143 11.8479 2.58881 10.9168C2.58881 10.7691 2.53232 10.6214 2.50193 10.4824C2.49906 10.2305 2.4976 9.97849 2.49756 9.72653ZM3.2317 9.53974H9.51732C9.47818 7.53724 8.21412 6.11677 6.52873 6.1038C4.65217 6.07771 3.3099 7.46771 3.22732 9.53106L3.2317 9.53974Z" fill="#0F0F0F"/>
</svg>
