<svg width="21" height="20" viewBox="0 0 21 20" fill="none" xmlns="http://www.w3.org/2000/svg">
<g clip-path="url(#clip0_131_428)">
<path d="M0.689941 0H20.6899V20H0.689941V0Z" fill="#F7DF1E"/>
<path d="M5.94869 16.7134L7.47916 15.7872C7.77447 16.3107 8.04306 16.7537 8.68736 16.7537C9.30494 16.7537 9.69439 16.5121 9.69439 15.5724V9.18196H11.5738V15.599C11.5738 17.5456 10.4327 18.4317 8.76791 18.4317C7.26439 18.4317 6.39166 17.6531 5.94861 16.7133M12.5947 16.512L14.125 15.626C14.5279 16.2839 15.0515 16.7672 15.9778 16.7672C16.7566 16.7672 17.2531 16.3778 17.2531 15.8408C17.2531 15.1964 16.743 14.9681 15.8838 14.5924L15.414 14.3908C14.058 13.8137 13.1585 13.0887 13.1585 11.5582C13.1585 10.1485 14.2325 9.07446 15.9107 9.07446C17.1056 9.07446 17.9648 9.49071 18.5823 10.5781L17.1188 11.518C16.7966 10.9407 16.4477 10.7125 15.9106 10.7125C15.3602 10.7125 15.0111 11.0616 15.0111 11.518C15.0111 12.0818 15.3602 12.3102 16.1656 12.6592L16.6355 12.8606C18.2331 13.5453 19.1326 14.2434 19.1326 15.814C19.1326 17.5057 17.8035 18.432 16.018 18.432C14.2727 18.432 13.145 17.5996 12.5946 16.5121" fill="black"/>
</g>
<defs>
<clipPath id="clip0_131_428">
<rect width="20" height="20" fill="white" transform="translate(0.689941)"/>
</clipPath>
</defs>
</svg>
