<svg width="30" height="20" viewBox="0 0 30 20" fill="none" xmlns="http://www.w3.org/2000/svg">
<path d="M9.05783 13.1975L9.94952 16.0908C10.1499 16.7477 10.2334 17.2062 10.2 17.4676C10.6876 16.1615 11.0284 14.7381 11.2222 13.1975H12.2945C11.8334 15.7056 11.2254 17.5282 10.4706 18.6652C9.88248 19.5413 9.23824 19.9794 8.53669 19.9794C8.34964 19.9794 8.11904 19.9229 7.8454 19.8107V19.2061C7.9791 19.2257 8.13594 19.2362 8.31634 19.2362C8.64357 19.2361 8.90748 19.1455 9.10809 18.9644C9.34838 18.7438 9.46867 18.4959 9.46867 18.2211C9.46867 18.0335 9.37485 17.6485 9.18809 17.066L7.94569 13.1975H9.05783ZM2.23336 11.4193L3.8666 16.4024H3.87669L5.51995 11.4193H6.86253C7.15652 13.8905 7.33016 16.1517 7.38345 18.2013H6.25153C6.21165 16.2854 6.10146 14.4837 5.92099 12.7961H5.91113L4.18746 18.2013H3.32546L1.61222 12.7961H1.60213C1.4751 14.4168 1.39495 16.2185 1.36167 18.2013H0.329468C0.396173 15.7898 0.563107 13.5293 0.83027 11.4193H2.23336Z" fill="#00758F"/>
<path d="M20.5299 11.3186C22.2867 11.3186 23.1652 12.441 23.1652 14.6847C23.1652 15.904 22.901 16.825 22.3731 17.4471C22.278 17.5608 22.1729 17.6591 22.0621 17.7501L23.3054 18.3648L23.3042 18.3647L22.8628 19.127L21.2437 18.1823C20.9753 18.2618 20.6801 18.3015 20.3582 18.3015C19.4956 18.3015 18.8513 18.0501 18.4252 17.5479C17.9576 16.9924 17.7239 16.1179 17.7239 14.9258C17.7239 13.7134 17.9876 12.7959 18.5157 12.1729C18.9966 11.6031 19.6681 11.3186 20.5299 11.3186ZM15.1499 11.3284C15.7778 11.3284 16.3488 11.4964 16.8631 11.8313L16.6019 12.4133C16.1618 12.2263 15.7279 12.1324 15.3001 12.1324C14.9529 12.1324 14.6854 12.2159 14.4989 12.384C14.3114 12.5507 14.1954 12.7651 14.1954 13.0266C14.1954 13.4283 14.4816 13.7767 15.0101 14.071C15.1832 14.1656 15.3557 14.2613 15.5276 14.3581L15.567 14.3803L15.5868 14.3914L15.6263 14.4136L15.646 14.4247L15.6854 14.447C16.0854 14.6725 16.4618 14.8877 16.4618 14.8877C16.9902 15.2628 17.2535 15.6627 17.2535 16.3213C17.2535 16.8965 17.0428 17.3686 16.6226 17.7381C16.2021 18.1059 15.6373 18.2903 14.9299 18.2903C14.2683 18.2903 13.6271 18.078 13.006 17.6571L13.2965 17.0745C13.831 17.3424 14.3147 17.4762 14.749 17.4762C15.1564 17.4762 15.4752 17.3852 15.7059 17.2056C15.9361 17.0247 16.074 16.7724 16.074 16.4525C16.074 16.0498 15.7939 15.7055 15.28 15.4168C15.1192 15.3279 14.9588 15.2382 14.7989 15.1476L14.7596 15.1253C14.6872 15.0844 14.6144 15.0431 14.5431 15.0026L14.5044 14.9805C14.1574 14.7832 13.8574 14.6107 13.8574 14.6107C13.3437 14.235 13.0861 13.8318 13.0861 13.1675C13.0861 12.6181 13.2782 12.1741 13.6618 11.8363C14.0464 11.4977 14.5424 11.3284 15.1499 11.3284ZM25.2299 11.4192V17.3669H27.3639V18.2012H24.1476V11.4192L25.2299 11.4192ZM28.5496 17.3695V17.5105H28.315V18.2004H28.1357V17.5105H27.8919V17.3695H28.5496ZM28.9829 17.3695L29.2082 17.9359L29.4151 17.3695H29.6694V18.2004H29.5003V17.5681L29.2648 18.2004H29.1429L28.907 17.5681H28.8979V18.2004H28.738V17.3695H28.9829ZM20.4194 12.1526C19.3841 12.1526 18.8662 13.0071 18.8662 14.7148C18.8662 15.693 19.0034 16.4024 19.2774 16.8445C19.5311 17.2537 19.9286 17.4579 20.4697 17.4579C21.505 17.4579 22.0229 16.5968 22.0229 14.8754C22.0229 13.9109 21.8856 13.2076 21.612 12.7652C21.358 12.357 20.9607 12.1526 20.4194 12.1526" fill="#F29111"/>
<path d="M17.7059 0.420233C18.0493 -0.423664 19.2502 0.215419 19.7162 0.510204C19.8304 0.583958 19.9614 0.739775 20.0924 0.797368C20.2967 0.805391 20.5008 0.821379 20.7054 0.829918C21.0893 0.920119 21.4488 0.993815 21.7513 1.16608C23.1569 1.99387 24.0719 2.83743 24.914 4.23078C25.094 4.52591 25.1839 4.84528 25.3309 5.16465C25.5349 5.64069 25.7641 6.14041 26.0009 6.59055C26.1069 6.80396 26.1889 7.04127 26.3361 7.22149C26.3936 7.3039 26.5569 7.3282 26.6545 7.37743C26.9243 7.51708 27.2512 7.6231 27.5049 7.787C27.9788 8.08247 28.4369 8.43456 28.8534 8.79502C29.0087 8.93416 29.1145 9.13112 29.2624 9.27829V9.35255C29.1311 9.39284 29.0003 9.4341 28.8693 9.46717C28.5833 9.54064 28.33 9.52402 28.0525 9.59754C27.881 9.64728 27.6681 9.7129 27.4883 9.72958L27.5049 9.74631C27.6107 10.0486 28.1831 10.2944 28.4449 10.4752C28.7628 10.7047 29.0574 10.983 29.2945 11.3026C29.3764 11.3841 29.4583 11.4583 29.5398 11.5397C29.5968 11.6221 29.6128 11.7287 29.6705 11.8021V11.827C29.6066 11.8045 29.5607 11.7615 29.5172 11.7166L29.4913 11.6895C29.4653 11.6625 29.4391 11.6361 29.4093 11.6142C29.2289 11.491 29.0497 11.3436 28.8693 11.2291C28.5592 11.0323 28.1995 10.9181 27.881 10.7205C27.701 10.6059 27.5293 10.4752 27.3577 10.344C27.2021 10.229 27.0308 10.0081 26.933 9.84424C26.8754 9.7537 26.8675 9.64728 26.8017 9.58178C26.8134 9.47238 26.9137 9.43989 27.0148 9.41319L27.0381 9.40705C27.073 9.398 27.1071 9.38894 27.1369 9.37697C27.5618 9.19657 28.0683 9.13112 28.7224 9.14751C28.6978 8.98327 28.2891 8.77863 28.1586 8.68029C27.8967 8.49152 27.6194 8.29456 27.3416 8.12276C27.1944 8.03278 26.9407 7.96711 26.7776 7.89359C26.5569 7.80339 26.0664 7.71324 25.9441 7.54144C25.7364 7.27061 25.5871 6.94757 25.4423 6.62126L25.4028 6.53221L25.3633 6.44321C25.1921 6.05026 24.9793 5.64058 24.8077 5.23823C24.718 5.04195 24.6768 4.86969 24.5785 4.68144C23.9821 3.52625 23.0994 2.55909 22.0292 1.87892C21.6775 1.6576 21.2854 1.45278 20.8525 1.31359C20.6071 1.23949 20.3127 1.28046 20.0513 1.22361H19.8793C19.7325 1.18224 19.6099 1.02659 19.4953 0.944531C19.2423 0.772726 18.9889 0.657368 18.6863 0.534789C18.5803 0.48562 18.2776 0.371121 18.1719 0.461265C18.1065 0.477712 18.0733 0.502411 18.0572 0.568084C17.9921 0.666078 18.0493 0.8137 18.0898 0.904073C18.2126 1.16596 18.384 1.32161 18.5397 1.54293C18.6781 1.7392 18.8501 1.96052 18.9483 2.17393C19.1601 2.63267 19.2587 3.14092 19.455 3.5996C19.5278 3.7721 19.6429 3.96837 19.7489 4.12396C19.8387 4.24745 20.0019 4.33674 20.0513 4.49307C20.1498 4.65697 19.9039 5.19777 19.847 5.36952C19.6341 6.04155 19.6754 6.97571 19.9206 7.55823L19.9336 7.58894L19.9467 7.62006C20.0362 7.83341 20.132 8.06316 20.37 8.12281C20.3864 8.10654 20.37 8.11508 20.4025 8.10654C20.4601 7.65565 20.4763 7.22144 20.6317 6.86866C20.7215 6.64808 20.9008 6.49215 21.0238 6.3121C21.1057 6.36115 21.1057 6.50906 21.1545 6.60694C21.2609 6.86081 21.3751 7.13914 21.5062 7.39376C21.7753 7.91811 22.0781 8.42648 22.4212 8.88516C22.5361 9.049 22.6992 9.22935 22.8462 9.37691C22.9117 9.43404 22.9851 9.46705 23.0343 9.54058H23.0504V9.56533C22.8052 9.47496 22.6498 9.22132 22.4542 9.07324C22.0861 8.7949 21.6453 8.37691 21.3915 7.97582C21.2854 7.74556 21.1706 7.52488 21.0563 7.29576V7.2792C21.0074 7.34465 21.0238 7.40963 20.9993 7.50866C20.8932 7.91811 20.9749 8.38522 20.6071 8.5325C20.1903 8.70499 19.8794 8.25416 19.7489 8.04929C19.3319 7.36929 19.2177 6.22212 19.5117 5.29611C19.5771 5.09112 19.5859 4.84528 19.7 4.68161C19.6753 4.53364 19.5613 4.49318 19.4953 4.40253C19.381 4.24757 19.283 4.06705 19.1934 3.89496C19.0214 3.5588 18.899 3.15714 18.7684 2.79662C18.711 2.6494 18.6945 2.50161 18.6373 2.36224C18.5396 2.14952 18.3596 1.93611 18.2208 1.74791C18.0328 1.47743 17.4851 0.953185 17.7059 0.420233ZM20.3862 2.02568C20.4081 2.04757 20.4344 2.06671 20.4617 2.08556L20.4946 2.10814C20.5384 2.13851 20.5809 2.17049 20.6069 2.21404C20.6482 2.27169 20.6559 2.3286 20.7053 2.38636C20.7053 2.58333 20.6482 2.71427 20.5329 2.79588C20.5329 2.79588 20.5251 2.80447 20.517 2.8125C20.4517 2.68121 20.3944 2.55061 20.3286 2.41943C20.2476 2.30493 20.133 2.2141 20.067 2.08327H20.0512V2.06682C20.1498 2.04247 20.2476 2.02568 20.3862 2.02568Z" fill="#00758F"/>
</svg>
