<svg width="34" height="20" viewBox="0 0 34 20" fill="none" xmlns="http://www.w3.org/2000/svg">
<path d="M16.8158 19.9423C16.7054 19.9423 16.6024 19.9129 16.5066 19.8613L15.5276 19.2798C15.3803 19.1988 15.4539 19.1694 15.4982 19.1546C15.6969 19.0884 15.7337 19.0736 15.9398 18.9559C15.9619 18.9411 15.9914 18.9485 16.0134 18.9632L16.7643 19.4123C16.7938 19.427 16.8306 19.427 16.8526 19.4123L19.7899 17.7118C19.8193 17.6971 19.8341 17.6676 19.8341 17.6308V14.2372C19.8341 14.2003 19.8193 14.1709 19.7899 14.1562L16.8526 12.463C16.8232 12.4483 16.7864 12.4483 16.7643 12.463L13.8271 14.1562C13.7976 14.1709 13.7829 14.2077 13.7829 14.2371V17.6308C13.7829 17.6602 13.7976 17.697 13.8271 17.7118L14.6295 18.1755C15.0638 18.3964 15.3362 18.1387 15.3362 17.8811V14.5316C15.3362 14.4874 15.373 14.4432 15.4245 14.4432H15.7999C15.8441 14.4432 15.8883 14.4801 15.8883 14.5316V17.8811C15.8883 18.4626 15.5717 18.8013 15.0196 18.8013C14.8503 18.8013 14.7178 18.8013 14.3424 18.6172L13.5694 18.1755C13.378 18.0651 13.2603 17.859 13.2603 17.6381V14.2445C13.2603 14.0237 13.378 13.8175 13.5694 13.7071L16.5066 12.0066C16.6907 11.9036 16.941 11.9036 17.125 12.0066L20.0622 13.7071C20.2536 13.8175 20.3715 14.0237 20.3715 14.2445V17.6381C20.3715 17.859 20.2536 18.0651 20.0622 18.1755L17.125 19.876C17.0293 19.9202 16.9189 19.9423 16.8158 19.9423ZM17.7213 17.6087C16.4331 17.6087 16.1681 17.0198 16.1681 16.5192C16.1681 16.475 16.2049 16.4309 16.2564 16.4309H16.6392C16.6834 16.4309 16.7202 16.4603 16.7202 16.5045C16.7791 16.8946 16.9484 17.086 17.7287 17.086C18.3471 17.086 18.6122 16.9462 18.6122 16.6149C18.6122 16.4235 18.5385 16.2837 17.5741 16.188C16.7717 16.1069 16.2711 15.9303 16.2711 15.2899C16.2711 14.6936 16.7718 14.3402 17.611 14.3402C18.5532 14.3402 19.017 14.6641 19.0759 15.3708C19.0759 15.3929 19.0686 15.415 19.0538 15.4371C19.039 15.4518 19.017 15.4665 18.9949 15.4665H18.6121C18.5753 15.4665 18.5385 15.4371 18.5311 15.4002C18.4428 14.9954 18.2146 14.8629 17.611 14.8629C16.9337 14.8629 16.8527 15.0985 16.8527 15.2751C16.8527 15.4886 16.9484 15.5548 17.8612 15.6726C18.7667 15.7904 19.1937 15.9597 19.1937 16.5928C19.1863 17.2406 18.6563 17.6087 17.7213 17.6087Z" fill="#539E43"/>
<path d="M7.7023 6.66957C7.7023 6.53709 7.62867 6.41186 7.5109 6.34562L4.38963 4.54944C4.33803 4.51995 4.27918 4.50524 4.22033 4.49785H4.19084C4.13198 4.49785 4.07307 4.51995 4.02154 4.54944L0.900264 6.34562C0.782429 6.41186 0.708862 6.53702 0.708862 6.66957L0.716251 11.4987C0.716251 11.5649 0.753066 11.6312 0.81192 11.6607C0.870837 11.6975 0.944404 11.6975 0.995996 11.6607L2.85109 10.6006C2.96886 10.5343 3.04249 10.4092 3.04249 10.2767V8.0167C3.04249 7.88422 3.11606 7.75906 3.23389 7.69282L4.02154 7.23639C4.08045 7.19957 4.1467 7.18479 4.21294 7.18479C4.27918 7.18479 4.34542 7.19957 4.39702 7.23639L5.18466 7.69282C5.30249 7.75906 5.37606 7.88416 5.37606 8.0167V10.2767C5.37606 10.4092 5.44969 10.5343 5.56746 10.6006L7.42256 11.6607C7.45122 11.6787 7.48439 11.6883 7.51826 11.6883C7.55212 11.6883 7.5853 11.6787 7.61396 11.6607C7.67287 11.6312 7.70969 11.5649 7.70969 11.4987L7.7023 6.66957ZM22.705 0.0221178C22.6462 -0.00737261 22.5726 -0.00737261 22.521 0.0221178C22.4621 0.0589331 22.4253 0.117787 22.4253 0.184029V4.96906C22.4253 5.0132 22.4033 5.05734 22.3591 5.08683C22.3149 5.10887 22.2707 5.10887 22.2266 5.08683L21.4463 4.63779C21.389 4.60523 21.3243 4.58811 21.2585 4.58811C21.1927 4.58811 21.128 4.60523 21.0708 4.63779L17.9495 6.44135C17.8317 6.5076 17.7581 6.63275 17.7581 6.76524V10.365C17.7581 10.4975 17.8317 10.6227 17.9495 10.6889L21.0708 12.4925C21.128 12.5251 21.1927 12.5422 21.2585 12.5422C21.3243 12.5422 21.389 12.5251 21.4463 12.4925L24.5675 10.6889C24.6853 10.6227 24.7589 10.4975 24.7589 10.365V1.39135C24.7589 1.25148 24.6853 1.12639 24.5675 1.06008L22.705 0.0221178ZM22.418 9.17982C22.418 9.21664 22.4033 9.24607 22.3738 9.26078L21.3064 9.87912C21.2915 9.88642 21.2751 9.89021 21.2585 9.89021C21.2419 9.89021 21.2255 9.88642 21.2106 9.87912L20.1433 9.26078C20.1138 9.24607 20.0991 9.20925 20.0991 9.17982V7.94307C20.0991 7.90626 20.1138 7.87683 20.1433 7.86212L21.2106 7.24371C21.2255 7.23642 21.2419 7.23263 21.2585 7.23263C21.2751 7.23263 21.2915 7.23642 21.3064 7.24371L22.3738 7.86212C22.4033 7.87677 22.418 7.91365 22.418 7.94307V9.17982ZM33.0921 7.91365C33.2099 7.8474 33.2762 7.72225 33.2762 7.5897V6.71371C33.2762 6.58123 33.2026 6.45607 33.0921 6.38982L29.9929 4.59365C29.9357 4.56109 29.871 4.54397 29.8052 4.54397C29.7394 4.54397 29.6747 4.56109 29.6175 4.59365L26.4962 6.39715C26.3784 6.46339 26.3048 6.58855 26.3048 6.72104V10.3208C26.3048 10.4533 26.3784 10.5785 26.4962 10.6447L29.5954 12.4115C29.7132 12.4777 29.8531 12.4777 29.9635 12.4115L31.8406 11.3663C31.8996 11.3368 31.9364 11.2705 31.9364 11.2043C31.9364 11.138 31.8996 11.0718 31.8406 11.0423L28.7047 9.23874C28.6457 9.20193 28.6089 9.14307 28.6089 9.07683V7.95053C28.6089 7.88428 28.6457 7.81804 28.7047 7.78855L29.6837 7.22906C29.7124 7.21102 29.7455 7.20144 29.7794 7.20144C29.8133 7.20144 29.8464 7.21102 29.8751 7.22906L30.8542 7.78855C30.9131 7.82537 30.9499 7.88422 30.9499 7.95053V8.8339C30.9499 8.90014 30.9867 8.96638 31.0456 8.99581C31.0743 9.01385 31.1075 9.02343 31.1413 9.02343C31.1752 9.02343 31.2084 9.01385 31.237 8.99581L33.0921 7.91365Z" fill="#333333"/>
<path d="M29.7573 7.74426C29.7683 7.73706 29.7811 7.73322 29.7941 7.73322C29.8072 7.73322 29.82 7.73706 29.831 7.74426L30.4273 8.09025C30.4493 8.10502 30.464 8.12706 30.464 8.15649V8.84853C30.464 8.87795 30.4494 8.90006 30.4273 8.91477L29.831 9.26076C29.82 9.26796 29.8072 9.2718 29.7941 9.2718C29.7811 9.2718 29.7683 9.26796 29.7573 9.26076L29.1611 8.91477C29.139 8.90006 29.1243 8.87795 29.1243 8.84853V8.15655C29.1243 8.12706 29.1389 8.10496 29.1611 8.09031L29.7573 7.74426Z" fill="#539E43"/>
<path d="M12.9216 4.60837C12.8644 4.57583 12.7997 4.55872 12.7339 4.55872C12.6681 4.55872 12.6034 4.57583 12.5462 4.60837L9.44702 6.3971C9.32918 6.46334 9.26294 6.5885 9.26294 6.72098V10.3061C9.26294 10.4386 9.33657 10.5637 9.44702 10.63L12.5462 12.4188C12.6034 12.4514 12.6681 12.4685 12.7339 12.4685C12.7997 12.4685 12.8644 12.4514 12.9216 12.4188L16.0208 10.63C16.1386 10.5637 16.2049 10.4386 16.2049 10.3061V6.72105C16.2049 6.58856 16.1312 6.4634 16.0208 6.39716L12.9216 4.60837Z" fill="url(#paint0_linear_131_434)"/>
<mask id="mask0_131_434" style="mask-type:luminance" maskUnits="userSpaceOnUse" x="9" y="4" width="8" height="9">
<path d="M12.9216 4.60837C12.8644 4.57583 12.7997 4.55872 12.7339 4.55872C12.6681 4.55872 12.6034 4.57583 12.5462 4.60837L9.44702 6.3971C9.32918 6.46334 9.26294 6.5885 9.26294 6.72098V10.3061C9.26294 10.4386 9.33657 10.5637 9.44702 10.63L12.5462 12.4188C12.6034 12.4514 12.6681 12.4685 12.7339 12.4685C12.7997 12.4685 12.8644 12.4514 12.9216 12.4188L16.0208 10.63C16.1386 10.5637 16.2049 10.4386 16.2049 10.3061V6.72105C16.2049 6.58856 16.1312 6.4634 16.0208 6.39716L12.9216 4.60837Z" fill="white"/>
</mask>
<g mask="url(#mask0_131_434)">
<path d="M16.0282 6.3972L12.9143 4.60841C12.8837 4.59295 12.8517 4.58061 12.8186 4.57159L9.32922 10.5492C9.35815 10.5844 9.39305 10.6144 9.43234 10.6375L12.5462 12.4264C12.6346 12.4779 12.7376 12.4926 12.8333 12.4631L16.1092 6.47089C16.0871 6.44147 16.0576 6.41924 16.0282 6.3972Z" fill="url(#paint1_linear_131_434)"/>
</g>
<mask id="mask1_131_434" style="mask-type:luminance" maskUnits="userSpaceOnUse" x="9" y="4" width="8" height="9">
<path d="M12.9216 4.60837C12.8644 4.57583 12.7997 4.55872 12.7339 4.55872C12.6681 4.55872 12.6034 4.57583 12.5462 4.60837L9.44702 6.3971C9.32918 6.46334 9.26294 6.5885 9.26294 6.72098V10.3061C9.26294 10.4386 9.33657 10.5637 9.44702 10.63L12.5462 12.4188C12.6034 12.4514 12.6681 12.4685 12.7339 12.4685C12.7997 12.4685 12.8644 12.4514 12.9216 12.4188L16.0208 10.63C16.1386 10.5637 16.2049 10.4386 16.2049 10.3061V6.72105C16.2049 6.58856 16.1312 6.4634 16.0208 6.39716L12.9216 4.60837Z" fill="white"/>
</mask>
<g mask="url(#mask1_131_434)">
<path fill-rule="evenodd" clip-rule="evenodd" d="M16.0355 10.63C16.1238 10.5785 16.1901 10.4901 16.2196 10.3945L12.8037 4.56413C12.7154 4.54942 12.6196 4.55675 12.5387 4.60827L9.4469 6.3898L12.7816 12.4704C12.8301 12.4625 12.8772 12.4476 12.9215 12.4262L16.0355 10.63Z" fill="url(#paint2_linear_131_434)"/>
<path fill-rule="evenodd" clip-rule="evenodd" d="M16.0356 10.63L12.9291 12.4189C12.8852 12.4412 12.8379 12.4561 12.7892 12.463L12.8481 12.5735L16.2933 10.5786V10.5343L16.2049 10.3871C16.1902 10.4901 16.124 10.5785 16.0356 10.63Z" fill="url(#paint3_linear_131_434)"/>
<path fill-rule="evenodd" clip-rule="evenodd" d="M16.0356 10.63L12.9291 12.4189C12.8852 12.4412 12.8379 12.4561 12.7892 12.463L12.8481 12.5735L16.2933 10.5786V10.5343L16.2049 10.3871C16.1902 10.4901 16.124 10.5785 16.0356 10.63Z" fill="url(#paint4_linear_131_434)"/>
</g>
<defs>
<linearGradient id="paint0_linear_131_434" x1="482.622" y1="142.877" x2="142.927" y2="676.643" gradientUnits="userSpaceOnUse">
<stop stop-color="#41873F"/>
<stop offset="0.3288" stop-color="#418B3D"/>
<stop offset="0.6352" stop-color="#419637"/>
<stop offset="0.9319" stop-color="#3FA92D"/>
<stop offset="1" stop-color="#3FAE2A"/>
</linearGradient>
<linearGradient id="paint1_linear_131_434" x1="302.747" y1="440.769" x2="1153.51" y2="-21.4525" gradientUnits="userSpaceOnUse">
<stop offset="0.1376" stop-color="#41873F"/>
<stop offset="0.4032" stop-color="#54A044"/>
<stop offset="0.7136" stop-color="#66B848"/>
<stop offset="0.9081" stop-color="#6CC04A"/>
</linearGradient>
<linearGradient id="paint2_linear_131_434" x1="-20.2784" y1="400.181" x2="696.867" y2="400.181" gradientUnits="userSpaceOnUse">
<stop offset="0.09192" stop-color="#6CC04A"/>
<stop offset="0.2864" stop-color="#66B848"/>
<stop offset="0.5968" stop-color="#54A044"/>
<stop offset="0.8624" stop-color="#41873F"/>
</linearGradient>
<linearGradient id="paint3_linear_131_434" x1="-351.148" y1="120.307" x2="365.99" y2="120.307" gradientUnits="userSpaceOnUse">
<stop offset="0.09192" stop-color="#6CC04A"/>
<stop offset="0.2864" stop-color="#66B848"/>
<stop offset="0.5968" stop-color="#54A044"/>
<stop offset="0.8624" stop-color="#41873F"/>
</linearGradient>
<linearGradient id="paint4_linear_131_434" x1="470.467" y1="-451.088" x2="288.788" y2="500.904" gradientUnits="userSpaceOnUse">
<stop stop-color="#41873F"/>
<stop offset="0.3288" stop-color="#418B3D"/>
<stop offset="0.6352" stop-color="#419637"/>
<stop offset="0.9319" stop-color="#3FA92D"/>
<stop offset="1" stop-color="#3FAE2A"/>
</linearGradient>
</defs>
</svg>
