<svg width="21" height="20" viewBox="0 0 21 20" fill="none" xmlns="http://www.w3.org/2000/svg">
<g clip-path="url(#clip0_131_431)">
<path d="M4.23218 7.34375H19.8056V18.8547H4.23218V7.34375Z" fill="white"/>
<path d="M0.924316 9.98596V19.7516H20.4556V0.220337H0.924316V9.98596ZM16.6634 9.20471C17.1312 9.31327 17.5563 9.55793 17.8853 9.90784C18.0663 10.0964 18.2237 10.3062 18.354 10.5328C18.354 10.5578 17.5103 11.1281 16.9962 11.4469C16.9774 11.4594 16.9024 11.3781 16.8196 11.2547C16.7258 11.0928 16.5924 10.9573 16.4321 10.8608C16.2717 10.7644 16.0895 10.7101 15.9024 10.7031C15.3103 10.6625 14.929 10.9735 14.9321 11.4844C14.9274 11.6116 14.9565 11.7378 15.0165 11.85C15.1462 12.1203 15.3884 12.2813 16.1478 12.6094C17.5462 13.211 18.1446 13.6078 18.5165 14.1719C18.9321 14.7969 19.0243 15.8063 18.7431 16.5532C18.4306 17.3656 17.6649 17.9172 16.5821 18.1C16.0876 18.1567 15.5879 18.1515 15.0946 18.0844C14.3386 17.9598 13.6423 17.5968 13.1071 17.0485C12.9274 16.85 12.5774 16.3328 12.5993 16.2953C12.6562 16.2528 12.7163 16.2147 12.779 16.1813L13.5024 15.7813L14.0634 15.4563L14.1806 15.6297C14.3784 15.9126 14.6301 16.1536 14.9212 16.3391C15.5462 16.6672 16.3993 16.6219 16.8212 16.2422C16.9628 16.1031 17.0512 15.9187 17.0709 15.7211C17.0906 15.5235 17.0404 15.3253 16.929 15.161C16.7728 14.9438 16.4603 14.761 15.5868 14.3797C14.579 13.9453 14.1446 13.6766 13.7478 13.2485C13.5001 12.9659 13.3172 12.6326 13.2118 12.2719C13.1333 11.8598 13.1217 11.4377 13.1774 11.0219C13.3853 10.0485 14.1149 9.36877 15.1806 9.16721C15.6741 9.10624 16.174 9.11994 16.6634 9.20784V9.20471ZM12.079 10.0235V10.8235H9.54307V18.0469H7.74463V10.8219H5.20244V10.0406C5.19447 9.77124 5.20073 9.50159 5.22119 9.23284C5.23369 9.21877 6.78369 9.21877 8.65869 9.21877H12.0696L12.079 10.0235Z" fill="#007ACC"/>
</g>
<defs>
<clipPath id="clip0_131_431">
<rect width="20" height="20" fill="white" transform="translate(0.689941)"/>
</clipPath>
</defs>
</svg>
