<svg width="21" height="20" viewBox="0 0 21 20" fill="none" xmlns="http://www.w3.org/2000/svg">
<path d="M14.1107 11.8867C14.2095 11.0645 14.1799 10.9439 14.7923 11.077L14.9478 11.0908C15.4187 11.1122 16.0348 11.015 16.3965 10.8469C17.1756 10.4854 17.6374 9.8817 16.8693 10.0403C15.117 10.4017 14.9965 9.80857 14.9965 9.80857C16.847 7.0631 17.6206 3.5781 16.9529 2.72498C15.132 0.398105 11.9798 1.49842 11.927 1.52701L11.9101 1.53029C11.5638 1.45826 11.1765 1.41545 10.7412 1.40842C9.94822 1.39545 9.34651 1.61639 8.8901 1.96248C8.8901 1.96248 3.26682 -0.354239 3.52838 4.87592C3.58401 5.98857 5.12322 13.295 6.95901 11.0881C7.62994 10.2812 8.27838 9.59889 8.27838 9.59889C8.60041 9.81279 8.98588 9.92185 9.39026 9.88264L9.42151 9.85607C9.41182 9.95623 9.41604 10.0542 9.43416 10.1701C8.96119 10.6987 9.10026 10.7915 8.15463 10.9861C7.19807 11.1833 7.7601 11.5342 8.12682 11.6259C8.57182 11.7373 9.60073 11.895 10.2962 10.9214L10.2685 11.0325C10.4542 11.1809 10.4415 12.0992 10.4678 12.7553C10.494 13.4114 10.5381 14.0236 10.6718 14.3848C10.8056 14.7458 10.9634 15.6756 12.206 15.4094C13.2445 15.1865 14.0384 14.8662 14.1107 11.8867Z" fill="black"/>
<path d="M11.8013 16.0578C11.2516 16.0578 10.8938 15.8453 10.6763 15.64C10.3482 15.3305 10.218 14.9316 10.1403 14.6933L10.1067 14.5938C9.95019 14.1711 9.89722 13.5627 9.86581 12.7792C9.86118 12.6567 9.85727 12.5342 9.85409 12.4117C9.85144 12.3178 9.84816 12.2 9.84347 12.0764C9.64541 12.1708 9.43524 12.2372 9.21894 12.2739C8.83144 12.3402 8.41487 12.3186 7.9805 12.21C7.67409 12.1334 7.35566 11.9747 7.17425 11.7294C6.64534 12.1927 6.14081 12.1297 5.86597 12.0381C5.38112 11.8764 4.94722 11.4222 4.53925 10.6491C4.24878 10.0986 3.96769 9.38109 3.70378 8.51688C3.24441 7.01172 2.95253 5.42641 2.92659 4.9061C2.84503 3.27688 3.28347 2.11188 4.22972 1.4436C5.72269 0.389064 7.98441 1.00906 8.80894 1.29063C9.36284 0.95672 10.0146 0.794064 10.7511 0.805939C11.1467 0.812345 11.5233 0.847189 11.8732 0.909376C12.238 0.794689 12.9589 0.630001 13.7841 0.640158C15.3044 0.658283 16.5642 1.25078 17.4272 2.3536C18.043 3.14047 17.7386 4.79266 17.5022 5.70766C17.1699 6.99438 16.5872 8.36328 15.8716 9.55485C16.066 9.55625 16.3474 9.53281 16.7477 9.45031C17.5374 9.28719 17.7682 9.71063 17.8308 9.90016C18.0819 10.6606 16.9905 11.2352 16.65 11.3931C16.2138 11.5958 15.5027 11.7191 14.9202 11.6923L14.8947 11.6906L14.7417 11.6772L14.7266 11.8047L14.7121 11.9295C14.673 13.4395 14.4572 14.3958 14.0133 15.0278C13.5482 15.6902 12.9014 15.8759 12.3319 15.998C12.1577 16.0368 11.9798 16.0569 11.8013 16.0578ZM10.6447 10.5619C10.9996 10.8458 11.0307 11.38 11.0583 12.3784C11.0617 12.503 11.065 12.6209 11.0694 12.7311C11.0828 13.0645 11.1142 13.8455 11.2364 14.1755C11.2538 14.222 11.2692 14.2695 11.2855 14.3195C11.4217 14.737 11.4902 14.9463 12.0794 14.82C12.5742 14.7141 12.8285 14.6189 13.0275 14.3355C13.3169 13.9233 13.4788 13.0947 13.5085 11.8719L14.1103 11.8866L13.5125 11.8148L13.53 11.6656C13.5874 11.1738 13.6286 10.8181 13.9575 10.5831C14.2213 10.3945 14.5221 10.4128 14.7616 10.4559C14.4985 10.2573 14.4257 10.0239 14.4063 9.92828L14.3561 9.6811L14.4971 9.47172C15.3096 8.2661 15.9797 6.78438 16.3357 5.40641C16.7013 3.99047 16.5897 3.23844 16.4783 3.09625C15.0024 1.21016 12.4425 1.98875 12.1753 2.07735L12.13 2.10172L11.9035 2.14406L11.7874 2.12C11.4675 2.05359 11.1122 2.01688 10.7311 2.01063C10.1325 2.00063 9.64972 2.14203 9.25378 2.4425L8.97909 2.65078L8.66019 2.51938C7.97925 2.24094 5.97862 1.6811 4.923 2.42875C4.33706 2.84375 4.07019 3.65703 4.12956 4.84594C4.14909 5.23844 4.41597 6.72422 4.85566 8.16547C5.46362 10.157 6.01612 10.8184 6.24675 10.8955C6.28691 10.9091 6.39144 10.8278 6.49534 10.7031C7.17128 9.89016 7.81409 9.2125 7.84112 9.18391L8.18972 8.81719L8.61112 9.09719C8.78097 9.21016 8.96831 9.27406 9.16081 9.28609L10.166 8.42891L10.0203 9.91485C10.0171 9.94828 10.0155 9.9936 10.0286 10.078L10.0724 10.3597L9.88284 10.5719L9.86097 10.5964L10.4132 10.8514L10.6447 10.5619Z" fill="black"/>
<path d="M16.8697 10.0403C15.1172 10.4017 14.9967 9.80843 14.9967 9.80843C16.847 7.06296 17.6205 3.57781 16.953 2.72484C15.1319 0.397963 11.9797 1.49843 11.927 1.52703L11.91 1.52999C11.5638 1.45828 11.1764 1.41546 10.7409 1.40843C9.94798 1.39546 9.34642 1.61624 8.89001 1.96234C8.89001 1.96234 3.26657 -0.354225 3.52814 4.87593C3.58376 5.98859 5.12298 13.295 6.95876 11.0881C7.6297 10.2812 8.27798 9.5989 8.27798 9.5989C8.60001 9.81281 8.98548 9.92187 9.3897 9.88265L9.42111 9.85609C9.41142 9.95624 9.41579 10.0542 9.43361 10.1701C8.96079 10.6987 9.09954 10.7916 8.15423 10.9861C7.19751 11.1833 7.75954 11.5342 8.12657 11.6259C8.57142 11.7373 9.60048 11.895 10.2958 10.9214L10.268 11.0325C10.4533 11.1809 10.5834 11.998 10.5616 12.7386C10.5397 13.4792 10.5252 13.9877 10.6713 14.3848C10.8174 14.782 10.9628 15.6756 12.2056 15.4094C13.2441 15.1867 13.7822 14.61 13.8572 13.6481C13.9103 12.9642 14.0305 13.0653 14.0381 12.4537L14.1347 12.1642C14.2458 11.237 14.1524 10.938 14.7922 11.0772L14.9477 11.0908C15.4186 11.1123 16.0349 11.015 16.3966 10.8469C17.1756 10.4853 17.6377 9.88171 16.8697 10.0403Z" fill="#336791"/>
<path d="M11.8641 15.6866C10.828 15.6867 10.4999 14.8662 10.3655 14.5308C10.1691 14.0392 10.1266 12.1311 10.1704 10.5662C10.1733 10.514 10.1965 10.465 10.235 10.4295C10.2735 10.3941 10.3243 10.3751 10.3766 10.3766C10.4289 10.378 10.4786 10.3999 10.5151 10.4374C10.5515 10.4749 10.5719 10.5252 10.5719 10.5775C10.5215 12.3823 10.5932 14.0178 10.7385 14.3816C10.9655 14.9491 11.3097 15.4455 12.2833 15.237C13.2076 15.0387 13.5536 14.6883 13.7077 13.7948C13.8261 13.1091 14.0599 11.1583 14.0887 10.7733C14.0926 10.7202 14.1175 10.6708 14.1578 10.6361C14.1982 10.6013 14.2507 10.584 14.3038 10.588C14.3569 10.5919 14.4063 10.6168 14.441 10.6572C14.4758 10.6975 14.4931 10.75 14.4891 10.8031C14.4591 11.2037 14.2263 13.1509 14.1033 13.8631C13.9213 14.9186 13.4508 15.3973 12.3674 15.6297C12.2021 15.6662 12.0334 15.6852 11.8641 15.6866ZM6.24678 11.6795C6.15622 11.6795 6.06628 11.6647 5.98053 11.6356C5.30756 11.4111 4.66662 10.3151 4.07537 8.37796C3.62537 6.90327 3.34021 5.36421 3.31521 4.86405C3.24099 3.38124 3.62303 2.33202 4.45037 1.74577C6.08724 0.585929 8.84099 1.69046 8.9574 1.73796C9.00625 1.7584 9.04505 1.79732 9.06534 1.84623C9.08563 1.89514 9.08578 1.95009 9.06575 1.99912C9.04572 2.04814 9.00714 2.08726 8.9584 2.10797C8.90966 2.12868 8.85472 2.12929 8.80553 2.10968V2.10983C8.77896 2.0989 6.13834 1.04108 4.68178 2.07405C3.97428 2.57577 3.64943 3.50765 3.71615 4.84421C3.73724 5.26546 4.00365 6.7678 4.45943 8.26093C4.98724 9.99015 5.58803 11.0816 6.10756 11.2547C6.18896 11.282 6.43709 11.3647 6.79209 10.9381C7.45959 10.135 8.07287 9.49405 8.07896 9.48765C8.11631 9.45146 8.16622 9.43117 8.21822 9.43102C8.27021 9.43087 8.32024 9.45088 8.35779 9.48685C8.39534 9.52282 8.41748 9.57195 8.41957 9.6239C8.42165 9.67586 8.40351 9.7266 8.36896 9.76546C8.36287 9.77171 7.75896 10.4031 7.10084 11.1948C6.78912 11.5695 6.49021 11.6795 6.24678 11.6795ZM14.9843 9.98749C14.9478 9.98754 14.912 9.97766 14.8808 9.9589C14.8495 9.94014 14.8239 9.91321 14.8068 9.88102C14.7897 9.84882 14.7817 9.81257 14.7836 9.77616C14.7856 9.73975 14.7974 9.70456 14.8179 9.67437C16.6883 6.89874 17.3449 3.54515 16.7826 2.82671C16.0747 1.92233 15.0752 1.44983 13.8119 1.4228C12.8765 1.40249 12.1329 1.6414 12.0115 1.68312L11.981 1.69546C11.8588 1.7339 11.7651 1.66687 11.7297 1.58858C11.7096 1.54373 11.7066 1.49308 11.7212 1.44614C11.7358 1.39921 11.7671 1.35923 11.8091 1.33374L11.8632 1.31155L11.8605 1.31233L11.8633 1.3114C12.0697 1.23593 12.8246 1.00937 13.7597 1.02015C15.1577 1.03483 16.3124 1.57405 17.099 2.57905C17.4712 3.05468 17.4719 4.15046 17.1013 5.5853C16.7235 7.04812 16.0126 8.62046 15.151 9.8989C15.1326 9.92625 15.1078 9.94865 15.0787 9.9641C15.0497 9.97956 15.0172 9.98759 14.9843 9.98749ZM15.0797 11.2723C14.7604 11.2723 14.4741 11.2275 14.3027 11.1247C14.1265 11.0192 14.0929 10.8756 14.0885 10.7995C14.0404 9.95515 14.5063 9.80812 14.744 9.74109C14.7108 9.69108 14.6637 9.63218 14.6151 9.5714C14.4765 9.39827 14.2868 9.16109 14.1405 8.8064C14.1177 8.75108 14.0458 8.62218 13.9627 8.47312C13.5122 7.66546 12.5751 5.98468 13.1771 5.1239C13.4558 4.72562 14.0105 4.5689 14.828 4.6564C14.5876 3.92374 13.4422 1.63171 10.7251 1.58718C9.90771 1.57343 9.2374 1.82483 8.73381 2.33327C7.60615 3.47218 7.64709 5.5328 7.64756 5.55327C7.64824 5.57963 7.64373 5.60586 7.63428 5.63048C7.62483 5.65509 7.61062 5.6776 7.59247 5.69672C7.57432 5.71585 7.55258 5.73121 7.5285 5.74193C7.50441 5.75265 7.47845 5.75852 7.45209 5.75921C7.42573 5.7599 7.3995 5.75539 7.37488 5.74594C7.35027 5.73648 7.32776 5.72228 7.30864 5.70413C7.28951 5.68598 7.27415 5.66424 7.26343 5.64015C7.25271 5.61606 7.24684 5.5901 7.24615 5.56374C7.24365 5.47234 7.20146 3.30999 8.44849 2.05062C9.03209 1.46124 9.80021 1.1703 10.7316 1.18546C12.4704 1.21405 13.5893 2.0978 14.2219 2.83437C14.9113 3.63687 15.2494 4.52218 15.2772 4.81749C15.298 5.03718 15.1404 5.08124 15.1085 5.08765L15.0362 5.08937C14.2338 4.96093 13.7191 5.04999 13.5063 5.35421C13.0483 6.00858 13.9349 7.59843 14.3135 8.27749C14.4102 8.45062 14.4799 8.57577 14.5118 8.65312C14.6362 8.95468 14.7983 9.15733 14.9286 9.32015C15.0432 9.46343 15.1426 9.58749 15.1782 9.73343C15.1946 9.76233 15.4286 10.1083 16.8169 9.82171C17.1649 9.74999 17.3735 9.8114 17.4372 10.0042C17.5627 10.3837 16.8588 10.8262 16.4691 11.0073C16.1194 11.1697 15.5621 11.2723 15.0797 11.2723ZM14.489 10.7664C14.5329 10.8109 14.7532 10.8875 15.2096 10.868C15.6152 10.8505 16.0432 10.7622 16.3001 10.6431C16.6285 10.4906 16.8476 10.3201 16.9612 10.2037L16.898 10.2153C16.0104 10.3986 15.3826 10.3742 15.0321 10.1426C15.0085 10.1271 14.9858 10.1102 14.9641 10.0922C14.9262 10.1072 14.891 10.117 14.866 10.1241C14.6671 10.1798 14.4615 10.2375 14.489 10.7664ZM8.75506 11.8881C8.53459 11.8881 8.30256 11.8583 8.06553 11.7987C7.82006 11.7373 7.40599 11.5525 7.4124 11.2489C7.41943 10.9081 7.9149 10.8059 8.10162 10.7675C8.77537 10.6287 8.81928 10.5731 9.0299 10.3058C9.09131 10.2278 9.16771 10.1308 9.27178 10.0144C9.42646 9.8414 9.59553 9.75358 9.77428 9.75358C9.89865 9.75358 10.0008 9.79593 10.0682 9.82374C10.2832 9.9128 10.4626 10.1281 10.5363 10.3859C10.6029 10.6184 10.5712 10.8422 10.4469 11.0159C10.0394 11.5867 9.45443 11.8881 8.75506 11.8881ZM7.84615 11.2662C7.90678 11.313 8.02803 11.3755 8.16287 11.4094C8.36818 11.4606 8.56725 11.4867 8.75506 11.4867C9.32725 11.4867 9.78646 11.2497 10.1202 10.7826C10.1897 10.6851 10.169 10.5616 10.1504 10.4964C10.1113 10.3601 10.0144 10.2362 9.91459 10.1947C9.86037 10.1722 9.81553 10.155 9.77428 10.155C9.75209 10.155 9.68474 10.155 9.57115 10.282C9.47521 10.3892 9.40631 10.4767 9.34521 10.5541C9.08303 10.887 8.96287 11 8.18256 11.1608C7.99224 11.2001 7.89459 11.2398 7.84615 11.2662ZM9.39021 10.34C9.34228 10.3399 9.29596 10.3227 9.2596 10.2915C9.22324 10.2603 9.19924 10.217 9.19193 10.1697C9.18679 10.1363 9.18345 10.1028 9.18193 10.0691C8.67037 10.0594 8.17693 9.83999 7.8024 9.44905C7.32881 8.95483 7.11318 8.27015 7.21099 7.57062C7.31725 6.81093 7.27756 6.1403 7.25615 5.77999C7.25083 5.70588 7.24755 5.63163 7.24631 5.55733C7.24662 5.4939 7.24787 5.3253 7.81115 5.03983C8.01146 4.93827 8.41318 4.76109 8.85193 4.71562C9.57912 4.64062 10.0583 4.96437 10.2018 5.62749C10.589 7.41812 10.2324 8.21015 9.97209 8.78843C9.92349 8.89593 9.87771 8.9978 9.84115 9.09624L9.80881 9.18327C9.67131 9.55202 9.5524 9.87062 9.58896 10.1087C9.597 10.1614 9.58383 10.2151 9.55234 10.258C9.52085 10.3009 9.47362 10.3296 9.42099 10.3378L9.39021 10.34ZM7.64912 5.6128L7.65709 5.75624C7.67928 6.13046 7.72053 6.82702 7.60865 7.6264C7.52803 8.20327 7.70428 8.76655 8.09224 9.1714C8.39881 9.4914 8.80256 9.66796 9.2174 9.66796H9.226C9.27256 9.47218 9.34959 9.26562 9.43256 9.04296L9.46475 8.95655C9.50615 8.8453 9.55459 8.73765 9.60584 8.62374C9.85646 8.06687 10.1683 7.37374 9.80912 5.71233C9.73787 5.38343 9.56537 5.19296 9.28178 5.13015C8.69928 5.0014 7.83131 5.43952 7.64912 5.6128ZM8.86099 5.52765C8.85099 5.59858 8.99115 5.78812 9.17365 5.81343C9.35599 5.8389 9.51209 5.69077 9.52193 5.61983C9.53178 5.5489 9.39178 5.47062 9.20912 5.44515C9.02678 5.41968 8.87068 5.45655 8.86099 5.52765ZM9.21568 5.88343L9.16443 5.87984C9.05115 5.86405 8.93662 5.79265 8.85834 5.68874C8.83084 5.65234 8.78584 5.5814 8.79474 5.51827C8.80756 5.42562 8.92037 5.3703 9.09678 5.3703C9.13646 5.3703 9.17709 5.37317 9.21865 5.3789C9.3149 5.39233 9.40443 5.42015 9.47053 5.45702C9.58506 5.52108 9.59349 5.59233 9.58834 5.62937C9.57412 5.7314 9.41131 5.88343 9.21568 5.88343ZM8.92756 5.53952C8.93334 5.58327 9.04162 5.7278 9.18287 5.74733L9.21553 5.74968C9.34584 5.74968 9.44334 5.64702 9.45474 5.61343C9.44271 5.59062 9.35896 5.53359 9.1999 5.51171C9.16568 5.50693 9.13117 5.50442 9.09662 5.50421C8.99474 5.50405 8.94021 5.52702 8.92756 5.53952ZM14.4152 5.3828C14.4251 5.4539 14.2852 5.64343 14.1026 5.66874C13.9201 5.69405 13.764 5.54608 13.754 5.47499C13.7443 5.40405 13.8843 5.32577 14.0668 5.30046C14.2493 5.27484 14.4052 5.31202 14.4152 5.3828ZM14.0605 5.70499C13.8847 5.70499 13.7333 5.56827 13.7208 5.47968C13.7065 5.37327 13.8816 5.29233 14.0622 5.26733C14.1021 5.26171 14.1412 5.2589 14.1793 5.2589C14.3351 5.2589 14.4382 5.30468 14.4485 5.37827C14.4552 5.42608 14.4187 5.49968 14.3555 5.56593C14.314 5.60968 14.2265 5.68546 14.1074 5.70187L14.0605 5.70499ZM14.1791 5.32577C14.1441 5.32577 14.1082 5.32832 14.0713 5.33343C13.8897 5.35858 13.7818 5.43155 13.7869 5.47062C13.793 5.51343 13.9088 5.63812 14.0604 5.63812L14.0977 5.63546C14.1968 5.62155 14.2711 5.55702 14.3066 5.51968C14.3622 5.46108 14.3844 5.40609 14.3818 5.38718C14.3785 5.36265 14.3116 5.32577 14.1791 5.32577ZM14.6782 9.45905C14.6418 9.45903 14.6061 9.44914 14.575 9.43042C14.5438 9.4117 14.5183 9.38487 14.5011 9.35278C14.484 9.32069 14.4759 9.28456 14.4778 9.24824C14.4796 9.21192 14.4912 9.17677 14.5115 9.14655C14.939 8.50796 14.8607 7.85655 14.7851 7.22687C14.7527 6.95843 14.7194 6.68109 14.7282 6.41468C14.7369 6.14077 14.7716 5.91483 14.8054 5.69608C14.8452 5.43718 14.8829 5.19233 14.8672 4.90202C14.8661 4.84985 14.8853 4.79927 14.9208 4.761C14.9563 4.72272 15.0052 4.69976 15.0573 4.69696C15.1095 4.69415 15.1606 4.71174 15.2 4.74599C15.2394 4.78024 15.2639 4.82846 15.2683 4.88046C15.2862 5.21234 15.2435 5.48921 15.2022 5.75718C15.1704 5.9639 15.1374 6.17765 15.1294 6.42749C15.1218 6.66327 15.1519 6.91374 15.1838 7.17874C15.2644 7.84859 15.3555 8.6078 14.8452 9.36983C14.8065 9.42765 14.7429 9.45905 14.6782 9.45905Z" fill="white"/>
<path d="M1.11804 16.1225C1.34236 16.0859 1.56936 16.0682 1.79664 16.0697C2.14585 16.0697 2.40195 16.1509 2.56445 16.2972C2.71476 16.4272 2.80414 16.6262 2.80414 16.8701C2.80414 17.1179 2.73085 17.3129 2.59273 17.4551C2.40585 17.6542 2.10117 17.7558 1.75585 17.7558C1.65023 17.7558 1.55273 17.7517 1.47164 17.7314V18.8284H1.11804V16.1225ZM1.47164 17.4428C1.54882 17.4631 1.64632 17.4712 1.76414 17.4712C2.19054 17.4712 2.4507 17.264 2.4507 16.8862C2.4507 16.5247 2.19476 16.35 1.80476 16.35C1.65039 16.35 1.53257 16.3622 1.47164 16.3784V17.4428ZM4.94507 17.8287C4.94507 18.5559 4.44117 18.8729 3.96585 18.8729C3.43367 18.8729 3.02335 18.4829 3.02335 17.8612C3.02335 17.2031 3.45398 16.8172 3.99835 16.8172C4.5632 16.817 4.94507 17.2275 4.94507 17.8287ZM3.38507 17.849C3.38507 18.2797 3.63289 18.6047 3.98226 18.6047C4.32351 18.6047 4.57929 18.2837 4.57929 17.8409C4.57929 17.5078 4.41289 17.0853 3.99023 17.0853C3.56757 17.0853 3.38507 17.4753 3.38507 17.849ZM5.3471 18.4625C5.45273 18.5315 5.6396 18.6047 5.81835 18.6047C6.07835 18.6047 6.20023 18.4747 6.20023 18.3122C6.20023 18.1415 6.09882 18.0481 5.8346 17.9506C5.48117 17.8247 5.3146 17.6297 5.3146 17.394C5.3146 17.0772 5.57054 16.8172 5.99304 16.8172C6.1921 16.8172 6.36695 16.874 6.47664 16.939L6.38726 17.199C6.26634 17.1245 6.12709 17.0852 5.98507 17.0853C5.77382 17.0853 5.65601 17.2072 5.65601 17.3534C5.65601 17.5159 5.77398 17.589 6.02992 17.6865C6.37117 17.8165 6.54586 17.9872 6.54586 18.2797C6.54586 18.625 6.27773 18.8687 5.81054 18.8687C5.59523 18.8687 5.39617 18.8159 5.25804 18.7347L5.3471 18.4625ZM7.43539 16.297V16.8617H7.9471V17.1339H7.43539V18.1942C7.43539 18.4379 7.50429 18.5761 7.70351 18.5761C7.77335 18.5772 7.84304 18.569 7.9107 18.5517L7.92695 18.8198C7.85804 18.8483 7.7482 18.8686 7.61023 18.8686C7.44367 18.8686 7.30945 18.8158 7.22414 18.7183C7.12273 18.6126 7.08601 18.4379 7.08601 18.2064V17.1339H6.78132V16.8617H7.08601V16.3904L7.43539 16.297ZM10.0191 16.8618C10.0109 17.004 10.0029 17.1625 10.0029 17.4022V18.5437C10.0029 18.9947 9.91351 19.2709 9.72257 19.4417C9.53164 19.6204 9.25539 19.6773 9.00757 19.6773C8.77195 19.6773 8.51195 19.6204 8.35335 19.5148L8.44273 19.2426C8.57273 19.3239 8.77585 19.397 9.0196 19.397C9.38523 19.397 9.65335 19.2061 9.65335 18.7104V18.4911H9.64523C9.53554 18.6739 9.32429 18.8201 9.0196 18.8201C8.5321 18.8201 8.18273 18.4058 8.18273 17.8612C8.18273 17.195 8.61742 16.8172 9.06835 16.8172C9.40976 16.8172 9.59664 16.9959 9.68195 17.1584H9.69007L9.70632 16.8618H10.0191ZM9.64945 17.6378C9.64945 17.5768 9.64539 17.524 9.62914 17.4753C9.56414 17.2681 9.38945 17.0975 9.12945 17.0975C8.78804 17.0975 8.54445 17.3859 8.54445 17.8409C8.54445 18.2268 8.73945 18.5478 9.12539 18.5478C9.34476 18.5478 9.54382 18.4097 9.62101 18.1822C9.64132 18.1212 9.6496 18.0522 9.6496 17.9912L9.64945 17.6378ZM10.5715 17.4753C10.5715 17.2437 10.5674 17.0447 10.5552 16.8618H10.8682L10.8802 17.2478H10.8965C10.9859 16.9837 11.2012 16.8172 11.4409 16.8172C11.4815 16.8172 11.5098 16.8212 11.5423 16.8293V17.1665C11.5023 17.1578 11.4614 17.1537 11.4205 17.1543C11.1687 17.1543 10.9898 17.3453 10.9412 17.6134C10.9311 17.6684 10.9257 17.7241 10.9249 17.78V18.8281H10.5715V17.4753ZM12.0585 17.91C12.0666 18.3934 12.3752 18.5925 12.7327 18.5925C12.9888 18.5925 13.143 18.5478 13.2771 18.4909L13.338 18.7468C13.2121 18.8037 12.9968 18.8687 12.684 18.8687C12.0787 18.8687 11.7171 18.4706 11.7171 17.8775C11.7171 17.2843 12.0665 16.817 12.6393 16.817C13.2812 16.817 13.4518 17.3817 13.4518 17.7433C13.4518 17.8164 13.4437 17.8733 13.4396 17.9098L12.0585 17.91ZM13.1066 17.654C13.1105 17.4265 13.013 17.0731 12.611 17.0731C12.2494 17.0731 12.091 17.4062 12.0624 17.654H13.1066Z" fill="black"/>
<path d="M13.858 18.3975C14.0494 18.5126 14.2683 18.5744 14.4917 18.5762C14.8533 18.5762 15.0645 18.3853 15.0645 18.109C15.0645 17.8531 14.9183 17.7069 14.5486 17.5647C14.1017 17.4062 13.8255 17.1747 13.8255 16.7887C13.8255 16.3622 14.1789 16.0453 14.7111 16.0453C14.9914 16.0453 15.1945 16.1103 15.3164 16.1793L15.2189 16.4678C15.059 16.382 14.8803 16.3373 14.6989 16.3378C14.3252 16.3378 14.183 16.5612 14.183 16.7481C14.183 17.004 14.3494 17.13 14.7273 17.2762C15.1905 17.4551 15.4261 17.6784 15.4261 18.0806C15.4261 18.5031 15.1133 18.8687 14.4673 18.8687C14.2033 18.8687 13.9148 18.7915 13.7684 18.694L13.858 18.3975ZM18.1683 19.2303C17.8151 19.1376 17.4655 19.0319 17.1202 18.9134C17.0633 18.8931 17.0064 18.8728 16.9536 18.8728C16.3036 18.8484 15.747 18.369 15.747 17.4875C15.747 16.61 16.2833 16.0453 17.0227 16.0453C17.7661 16.0453 18.2497 16.6222 18.2497 17.4306C18.2497 18.1334 17.9247 18.5844 17.4697 18.7428V18.759C17.7419 18.8281 18.0384 18.8931 18.27 18.9337L18.1683 19.2303ZM17.8758 17.4469C17.8758 16.8984 17.5916 16.3336 17.0105 16.3336C16.4133 16.3336 16.1208 16.8861 16.1248 17.4793C16.1208 18.0603 16.4417 18.5844 16.9942 18.5844C17.5591 18.5844 17.8758 18.0725 17.8758 17.4469ZM18.7084 16.09H19.062V18.5315H20.232V18.8281H18.7084V16.09Z" fill="#336791"/>
</svg>
