<svg width="40" height="40" viewBox="0 0 40 40" fill="none" xmlns="http://www.w3.org/2000/svg">
<rect x="1" y="1" width="38" height="38" rx="19" stroke="#DEE5EF" stroke-width="2"/>
<path d="M16.5 11.6667H23.5C26.1666 11.6667 28.3333 13.8334 28.3333 16.5001V23.5001C28.3333 24.782 27.8241 26.0113 26.9176 26.9178C26.0112 27.8242 24.7818 28.3334 23.5 28.3334H16.5C13.8333 28.3334 11.6666 26.1667 11.6666 23.5001V16.5001C11.6666 15.2182 12.1759 13.9888 13.0823 13.0824C13.9887 12.176 15.2181 11.6667 16.5 11.6667ZM16.3333 13.3334C15.5376 13.3334 14.7746 13.6495 14.212 14.2121C13.6494 14.7747 13.3333 15.5378 13.3333 16.3334V23.6667C13.3333 25.3251 14.675 26.6667 16.3333 26.6667H23.6666C24.4623 26.6667 25.2253 26.3507 25.7879 25.7881C26.3506 25.2255 26.6666 24.4624 26.6666 23.6667V16.3334C26.6666 14.6751 25.325 13.3334 23.6666 13.3334H16.3333ZM24.375 14.5834C24.6512 14.5834 24.9162 14.6932 25.1115 14.8885C25.3069 15.0839 25.4166 15.3488 25.4166 15.6251C25.4166 15.9013 25.3069 16.1663 25.1115 16.3617C24.9162 16.557 24.6512 16.6667 24.375 16.6667C24.0987 16.6667 23.8337 16.557 23.6384 16.3617C23.443 16.1663 23.3333 15.9013 23.3333 15.6251C23.3333 15.3488 23.443 15.0839 23.6384 14.8885C23.8337 14.6932 24.0987 14.5834 24.375 14.5834ZM20 15.8334C21.105 15.8334 22.1648 16.2724 22.9462 17.0538C23.7276 17.8352 24.1666 18.895 24.1666 20.0001C24.1666 21.1052 23.7276 22.165 22.9462 22.9464C22.1648 23.7278 21.105 24.1667 20 24.1667C18.8949 24.1667 17.8351 23.7278 17.0537 22.9464C16.2723 22.165 15.8333 21.1052 15.8333 20.0001C15.8333 18.895 16.2723 17.8352 17.0537 17.0538C17.8351 16.2724 18.8949 15.8334 20 15.8334ZM20 17.5001C19.3369 17.5001 18.701 17.7635 18.2322 18.2323C17.7634 18.7012 17.5 19.337 17.5 20.0001C17.5 20.6631 17.7634 21.299 18.2322 21.7678C18.701 22.2367 19.3369 22.5001 20 22.5001C20.663 22.5001 21.2989 22.2367 21.7677 21.7678C22.2366 21.299 22.5 20.6631 22.5 20.0001C22.5 19.337 22.2366 18.7012 21.7677 18.2323C21.2989 17.7635 20.663 17.5001 20 17.5001Z" fill="#DEE5EF"/>
</svg>
